# MagicaVoxel @ Ephtracy

# material
mtllib board.mtl
usemtl palette

# normals
vn -1 0 0
vn 1 0 0
vn 0 0 1
vn 0 0 -1
vn 0 -1 0
vn 0 1 0

# texcoords
vt 0.158203 0.5
vt 0.244141 0.5
vt 0.248047 0.5
vt 0.314453 0.5

# verts
v -18 5 -0
v -18 5 -3
v -18 18 -0
v -18 18 -3
v -17 4 -0
v -17 4 -3
v -17 5 1
v -17 5 -0
v -17 5 -3
v -17 6 1
v -17 6 -0
v -17 7 1
v -17 7 -0
v -17 8 1
v -17 8 -0
v -17 11 1
v -17 11 -0
v -17 13 1
v -17 13 -0
v -17 14 1
v -17 14 -0
v -17 15 1
v -17 15 -0
v -17 17 1
v -17 17 -0
v -17 18 1
v -17 18 -0
v -17 18 -3
v -17 19 -0
v -17 19 -3
v -16 2 -0
v -16 2 -3
v -16 4 1
v -16 4 -0
v -16 4 -3
v -16 5 1
v -16 5 -0
v -16 18 1
v -16 18 -0
v -16 19 1
v -16 19 -0
v -16 19 -3
v -16 20 -0
v -16 20 -3
v -15 0 -0
v -15 0 -3
v -15 2 1
v -15 2 -0
v -15 2 -3
v -15 3 1
v -15 3 -0
v -15 4 1
v -15 4 -0
v -14 1 1
v -14 1 -0
v -14 2 1
v -14 2 -0
v -2 0 -1
v -2 0 -3
v -2 1 -1
v -2 1 -3
v -1 0 -0
v -1 0 -1
v -1 1 1
v -1 1 -0
v -1 1 -1
v -1 2 1
v -1 2 -0
v 3 18 1
v 3 18 -0
v 3 19 1
v 3 19 -0
v 3 19 -3
v 3 20 -0
v 3 20 -3
v 9 19 -0
v 9 19 -3
v 9 20 -0
v 9 20 -3
v 10 18 1
v 10 18 -0
v 10 19 1
v 10 19 -0
v -6 0 -0
v -6 0 -1
v -6 1 -0
v -6 1 -1
v -5 0 -1
v -5 0 -3
v -5 1 1
v -5 1 -0
v -5 1 -1
v -5 1 -3
v -5 2 1
v -5 2 -0
v -1 18 1
v -1 18 -0
v -1 19 1
v -1 19 -0
v -1 19 -3
v -1 20 -0
v -1 20 -3
v 8 18 1
v 8 18 -0
v 8 19 1
v 8 19 -0
v 8 19 -3
v 8 20 -0
v 8 20 -3
v 14 1 1
v 14 1 -0
v 14 2 1
v 14 2 -0
v 15 0 -0
v 15 0 -3
v 15 1 -0
v 15 1 -3
v 15 2 1
v 15 2 -0
v 15 3 1
v 15 3 -0
v 15 4 1
v 15 4 -0
v 16 1 -0
v 16 1 -3
v 16 4 1
v 16 4 -0
v 16 4 -3
v 16 5 1
v 16 5 -0
v 16 6 1
v 16 6 -0
v 16 18 1
v 16 18 -0
v 16 19 1
v 16 19 -0
v 16 19 -3
v 16 20 -0
v 16 20 -3
v 17 4 -0
v 17 4 -3
v 17 6 1
v 17 6 -0
v 17 6 -3
v 17 8 1
v 17 8 -0
v 17 9 1
v 17 9 -0
v 17 13 1
v 17 13 -0
v 17 14 1
v 17 14 -0
v 17 16 1
v 17 16 -0
v 17 17 1
v 17 17 -0
v 17 18 1
v 17 18 -0
v 17 18 -3
v 17 19 -0
v 17 19 -3
v 18 6 -0
v 18 6 -3
v 18 9 1
v 18 9 -0
v 18 9 -3
v 18 10 1
v 18 10 -0
v 18 11 1
v 18 11 -0
v 18 12 1
v 18 12 -0
v 18 13 1
v 18 13 -0
v 18 13 -3
v 18 18 -0
v 18 18 -3
v 19 9 -0
v 19 9 -3
v 19 13 -0
v 19 13 -3
v -17 5 1
v -17 6 1
v -17 7 1
v -17 8 1
v -17 11 1
v -17 13 1
v -17 14 1
v -17 15 1
v -17 17 1
v -17 18 1
v -16 4 1
v -16 5 1
v -16 18 1
v -16 19 1
v -15 2 1
v -15 3 1
v -15 4 1
v -14 1 1
v -14 2 1
v -12 2 1
v -12 3 1
v -12 4 1
v -9 5 1
v -9 6 1
v -9 7 1
v -9 8 1
v -8 3 1
v -8 4 1
v -8 5 1
v -8 12 1
v -8 13 1
v -8 14 1
v -8 15 1
v -6 1 1
v -6 2 1
v -6 3 1
v -6 17 1
v -6 18 1
v -5 1 1
v -5 2 1
v -1 1 1
v -1 2 1
v -1 18 1
v -1 19 1
v 0 2 1
v 0 3 1
v 0 14 1
v 0 15 1
v 0 16 1
v 0 17 1
v 1 1 1
v 1 2 1
v 1 10 1
v 1 11 1
v 1 17 1
v 1 18 1
v 3 18 1
v 3 19 1
v 7 1 1
v 7 2 1
v 7 3 1
v 7 4 1
v 8 4 1
v 8 5 1
v 8 6 1
v 8 18 1
v 8 19 1
v 9 6 1
v 9 7 1
v 9 12 1
v 9 13 1
v 9 14 1
v 10 9 1
v 10 10 1
v 10 11 1
v 10 12 1
v 10 18 1
v 10 19 1
v 13 8 1
v 13 9 1
v 14 1 1
v 14 2 1
v 15 2 1
v 15 3 1
v 15 4 1
v 16 4 1
v 16 5 1
v 16 6 1
v 16 18 1
v 16 19 1
v 17 6 1
v 17 8 1
v 17 9 1
v 17 13 1
v 17 14 1
v 17 16 1
v 17 17 1
v 17 18 1
v 18 9 1
v 18 10 1
v 18 11 1
v 18 12 1
v 18 13 1
v -18 5 -0
v -18 18 -0
v -17 4 -0
v -17 5 -0
v -17 6 -0
v -17 7 -0
v -17 8 -0
v -17 11 -0
v -17 13 -0
v -17 14 -0
v -17 15 -0
v -17 17 -0
v -17 18 -0
v -17 19 -0
v -16 2 -0
v -16 4 -0
v -16 5 -0
v -16 18 -0
v -16 19 -0
v -16 20 -0
v -15 0 -0
v -15 2 -0
v -15 3 -0
v -15 4 -0
v -14 1 -0
v -14 2 -0
v -6 0 -0
v -6 1 -0
v -5 1 -0
v -5 2 -0
v -1 0 -0
v -1 1 -0
v -1 2 -0
v -1 18 -0
v -1 19 -0
v -1 20 -0
v 1 1 -0
v 1 18 -0
v 3 18 -0
v 3 19 -0
v 3 20 -0
v 7 1 -0
v 8 18 -0
v 8 19 -0
v 8 20 -0
v 9 19 -0
v 9 20 -0
v 10 18 -0
v 10 19 -0
v 14 1 -0
v 14 2 -0
v 15 0 -0
v 15 1 -0
v 15 2 -0
v 15 3 -0
v 15 4 -0
v 16 1 -0
v 16 4 -0
v 16 5 -0
v 16 6 -0
v 16 18 -0
v 16 19 -0
v 16 20 -0
v 17 4 -0
v 17 6 -0
v 17 8 -0
v 17 9 -0
v 17 13 -0
v 17 14 -0
v 17 16 -0
v 17 17 -0
v 17 18 -0
v 17 19 -0
v 18 6 -0
v 18 9 -0
v 18 10 -0
v 18 11 -0
v 18 12 -0
v 18 13 -0
v 18 18 -0
v 19 9 -0
v 19 13 -0
v -6 0 -1
v -6 1 -1
v -5 0 -1
v -5 1 -1
v -2 0 -1
v -2 1 -1
v -1 0 -1
v -1 1 -1
v -18 5 -3
v -18 18 -3
v -17 4 -3
v -17 5 -3
v -17 18 -3
v -17 19 -3
v -16 2 -3
v -16 4 -3
v -16 19 -3
v -16 20 -3
v -15 0 -3
v -15 2 -3
v -5 0 -3
v -5 1 -3
v -2 0 -3
v -2 1 -3
v -1 19 -3
v -1 20 -3
v 3 19 -3
v 3 20 -3
v 8 19 -3
v 8 20 -3
v 9 19 -3
v 9 20 -3
v 15 0 -3
v 15 1 -3
v 16 1 -3
v 16 4 -3
v 16 19 -3
v 16 20 -3
v 17 4 -3
v 17 6 -3
v 17 18 -3
v 17 19 -3
v 18 6 -3
v 18 9 -3
v 18 13 -3
v 18 18 -3
v 19 9 -3
v 19 13 -3
v -15 0 -0
v -6 0 -0
v -1 0 -0
v 15 0 -0
v -6 0 -1
v -5 0 -1
v -2 0 -1
v -1 0 -1
v -15 0 -3
v -5 0 -3
v -2 0 -3
v 15 0 -3
v -14 1 1
v -6 1 1
v -5 1 1
v -1 1 1
v 1 1 1
v 7 1 1
v 14 1 1
v -14 1 -0
v -6 1 -0
v -5 1 -0
v -1 1 -0
v 1 1 -0
v 7 1 -0
v 14 1 -0
v 15 1 -0
v 16 1 -0
v -6 1 -1
v -5 1 -1
v -2 1 -1
v -1 1 -1
v -5 1 -3
v -2 1 -3
v 15 1 -3
v 16 1 -3
v -15 2 1
v -14 2 1
v -5 2 1
v -1 2 1
v 14 2 1
v 15 2 1
v -16 2 -0
v -15 2 -0
v -14 2 -0
v -5 2 -0
v -1 2 -0
v 14 2 -0
v 15 2 -0
v -16 2 -3
v -15 2 -3
v -16 4 1
v -15 4 1
v 15 4 1
v 16 4 1
v -17 4 -0
v -16 4 -0
v -15 4 -0
v 15 4 -0
v 16 4 -0
v 17 4 -0
v -17 4 -3
v -16 4 -3
v 16 4 -3
v 17 4 -3
v -17 5 1
v -16 5 1
v -18 5 -0
v -17 5 -0
v -16 5 -0
v -18 5 -3
v -17 5 -3
v 16 6 1
v 17 6 1
v 16 6 -0
v 17 6 -0
v 18 6 -0
v 17 6 -3
v 18 6 -3
v 17 9 1
v 18 9 1
v 17 9 -0
v 18 9 -0
v 19 9 -0
v 18 9 -3
v 19 9 -3
v 17 13 1
v 18 13 1
v 17 13 -0
v 18 13 -0
v 19 13 -0
v 18 13 -3
v 19 13 -3
v -17 18 1
v -16 18 1
v -1 18 1
v 1 18 1
v 3 18 1
v 8 18 1
v 10 18 1
v 16 18 1
v 17 18 1
v -18 18 -0
v -17 18 -0
v -16 18 -0
v -1 18 -0
v 1 18 -0
v 3 18 -0
v 8 18 -0
v 10 18 -0
v 16 18 -0
v 17 18 -0
v 18 18 -0
v -18 18 -3
v -17 18 -3
v 17 18 -3
v 18 18 -3
v -16 19 1
v -1 19 1
v 3 19 1
v 8 19 1
v 10 19 1
v 16 19 1
v -17 19 -0
v -16 19 -0
v -1 19 -0
v 3 19 -0
v 8 19 -0
v 9 19 -0
v 10 19 -0
v 16 19 -0
v 17 19 -0
v -17 19 -3
v -16 19 -3
v -1 19 -3
v 3 19 -3
v 8 19 -3
v 9 19 -3
v 16 19 -3
v 17 19 -3
v -16 20 -0
v -1 20 -0
v 3 20 -0
v 8 20 -0
v 9 20 -0
v 16 20 -0
v -16 20 -3
v -1 20 -3
v 3 20 -3
v 8 20 -3
v 9 20 -3
v 16 20 -3

# faces
f 3/3/1 2/3/1 1/3/1
f 4/3/1 2/3/1 3/3/1
f 8/3/1 6/3/1 5/3/1
f 9/3/1 6/3/1 8/3/1
f 10/3/1 8/3/1 7/3/1
f 11/3/1 8/3/1 10/3/1
f 12/4/1 11/4/1 10/4/1
f 13/4/1 11/4/1 12/4/1
f 14/2/1 13/2/1 12/2/1
f 15/2/1 13/2/1 14/2/1
f 16/4/1 15/4/1 14/4/1
f 17/4/1 15/4/1 16/4/1
f 18/3/1 17/3/1 16/3/1
f 19/3/1 17/3/1 18/3/1
f 20/2/1 19/2/1 18/2/1
f 21/2/1 19/2/1 20/2/1
f 22/4/1 21/4/1 20/4/1
f 23/4/1 21/4/1 22/4/1
f 24/2/1 23/2/1 22/2/1
f 25/2/1 23/2/1 24/2/1
f 26/3/1 25/3/1 24/3/1
f 27/3/1 25/3/1 26/3/1
f 29/3/1 28/3/1 27/3/1
f 30/3/1 28/3/1 29/3/1
f 34/3/1 32/3/1 31/3/1
f 35/3/1 32/3/1 34/3/1
f 36/2/1 34/2/1 33/2/1
f 37/2/1 34/2/1 36/2/1
f 40/1/1 39/1/1 38/1/1
f 41/1/1 39/1/1 40/1/1
f 43/3/1 42/3/1 41/3/1
f 44/3/1 42/3/1 43/3/1
f 48/3/1 46/3/1 45/3/1
f 49/3/1 46/3/1 48/3/1
f 50/3/1 48/3/1 47/3/1
f 51/3/1 48/3/1 50/3/1
f 52/1/1 51/1/1 50/1/1
f 53/1/1 51/1/1 52/1/1
f 56/3/1 55/3/1 54/3/1
f 57/3/1 55/3/1 56/3/1
f 60/3/1 59/3/1 58/3/1
f 61/3/1 59/3/1 60/3/1
f 65/3/1 63/3/1 62/3/1
f 66/3/1 63/3/1 65/3/1
f 67/1/1 65/1/1 64/1/1
f 68/1/1 65/1/1 67/1/1
f 71/3/1 70/3/1 69/3/1
f 72/3/1 70/3/1 71/3/1
f 74/3/1 73/3/1 72/3/1
f 75/3/1 73/3/1 74/3/1
f 78/3/1 77/3/1 76/3/1
f 79/3/1 77/3/1 78/3/1
f 82/3/1 81/3/1 80/3/1
f 83/3/1 81/3/1 82/3/1
f 84/3/2 85/3/2 86/3/2
f 86/3/2 85/3/2 87/3/2
f 88/3/2 89/3/2 92/3/2
f 92/3/2 89/3/2 93/3/2
f 90/1/2 91/1/2 94/1/2
f 94/1/2 91/1/2 95/1/2
f 96/1/2 97/1/2 98/1/2
f 98/1/2 97/1/2 99/1/2
f 99/3/2 100/3/2 101/3/2
f 101/3/2 100/3/2 102/3/2
f 103/3/2 104/3/2 105/3/2
f 105/3/2 104/3/2 106/3/2
f 106/3/2 107/3/2 108/3/2
f 108/3/2 107/3/2 109/3/2
f 110/2/2 111/2/2 112/2/2
f 112/2/2 111/2/2 113/2/2
f 114/3/2 115/3/2 116/3/2
f 116/3/2 115/3/2 117/3/2
f 118/2/2 119/2/2 120/2/2
f 120/2/2 119/2/2 121/2/2
f 120/3/2 121/3/2 122/3/2
f 122/3/2 121/3/2 123/3/2
f 124/3/2 125/3/2 127/3/2
f 127/3/2 125/3/2 128/3/2
f 126/4/2 127/4/2 129/4/2
f 129/4/2 127/4/2 130/4/2
f 129/2/2 130/2/2 131/2/2
f 131/2/2 130/2/2 132/2/2
f 133/3/2 134/3/2 135/3/2
f 135/3/2 134/3/2 136/3/2
f 136/3/2 137/3/2 138/3/2
f 138/3/2 137/3/2 139/3/2
f 140/3/2 141/3/2 143/3/2
f 143/3/2 141/3/2 144/3/2
f 142/4/2 143/4/2 145/4/2
f 145/4/2 143/4/2 146/4/2
f 145/1/2 146/1/2 147/1/2
f 147/1/2 146/1/2 148/1/2
f 149/3/2 150/3/2 151/3/2
f 151/3/2 150/3/2 152/3/2
f 151/2/2 152/2/2 153/2/2
f 153/2/2 152/2/2 154/2/2
f 153/4/2 154/4/2 155/4/2
f 155/4/2 154/4/2 156/4/2
f 155/1/2 156/1/2 157/1/2
f 157/1/2 156/1/2 158/1/2
f 158/3/2 159/3/2 160/3/2
f 160/3/2 159/3/2 161/3/2
f 162/3/2 163/3/2 165/3/2
f 165/3/2 163/3/2 166/3/2
f 164/1/2 165/1/2 167/1/2
f 167/1/2 165/1/2 168/1/2
f 167/3/2 168/3/2 169/3/2
f 169/3/2 168/3/2 170/3/2
f 169/2/2 170/2/2 171/2/2
f 171/2/2 170/2/2 172/2/2
f 171/4/2 172/4/2 173/4/2
f 173/4/2 172/4/2 174/4/2
f 174/3/2 175/3/2 176/3/2
f 176/3/2 175/3/2 177/3/2
f 178/3/2 179/3/2 180/3/2
f 180/3/2 179/3/2 181/3/2
f 193/3/3 183/3/3 182/3/3
f 194/3/3 191/3/3 190/3/3
f 198/2/3 193/2/3 192/2/3
f 200/3/3 197/3/3 196/3/3
f 201/3/3 197/3/3 200/3/3
f 201/3/3 200/3/3 199/3/3
f 202/1/3 198/1/3 197/1/3
f 202/3/3 197/3/3 201/3/3
f 203/2/3 193/2/3 198/2/3
f 203/1/3 198/1/3 202/1/3
f 204/3/3 183/3/3 193/3/3
f 204/2/3 193/2/3 203/2/3
f 205/4/3 184/4/3 183/4/3
f 205/3/3 183/3/3 204/3/3
f 206/2/3 185/2/3 184/2/3
f 206/4/3 184/4/3 205/4/3
f 207/4/3 186/4/3 185/4/3
f 207/2/3 185/2/3 206/2/3
f 208/3/3 203/3/3 202/3/3
f 208/1/3 202/1/3 201/1/3
f 209/2/3 204/2/3 203/2/3
f 209/3/3 203/3/3 208/3/3
f 210/4/3 205/4/3 204/4/3
f 210/2/3 204/2/3 209/2/3
f 211/3/3 187/3/3 186/3/3
f 212/2/3 188/2/3 187/2/3
f 212/3/3 187/3/3 211/3/3
f 213/4/3 189/4/3 188/4/3
f 213/2/3 188/2/3 212/2/3
f 214/2/3 190/2/3 189/2/3
f 214/4/3 189/4/3 213/4/3
f 215/3/3 201/3/3 199/3/3
f 216/1/3 208/1/3 201/1/3
f 216/3/3 201/3/3 215/3/3
f 217/2/3 209/2/3 208/2/3
f 217/1/3 208/1/3 216/1/3
f 218/2/3 190/2/3 214/2/3
f 218/3/3 194/3/3 190/3/3
f 219/1/3 195/1/3 194/1/3
f 219/3/3 194/3/3 218/3/3
f 220/1/3 216/1/3 215/1/3
f 221/3/3 217/3/3 216/3/3
f 221/1/3 216/1/3 220/1/3
f 223/3/3 217/3/3 221/3/3
f 224/1/3 195/1/3 219/1/3
f 224/4/3 219/4/3 218/4/3
f 225/1/3 195/1/3 224/1/3
f 226/1/3 223/1/3 222/1/3
f 226/3/3 217/3/3 223/3/3
f 227/2/3 209/2/3 217/2/3
f 227/3/3 217/3/3 226/3/3
f 228/4/3 213/4/3 212/4/3
f 228/3/3 214/3/3 213/3/3
f 229/2/3 218/2/3 214/2/3
f 229/3/3 214/3/3 228/3/3
f 230/2/3 218/2/3 229/2/3
f 231/4/3 224/4/3 218/4/3
f 231/2/3 218/2/3 230/2/3
f 232/1/3 226/1/3 222/1/3
f 233/2/3 227/2/3 226/2/3
f 233/1/3 226/1/3 232/1/3
f 234/4/3 186/4/3 207/4/3
f 234/4/3 207/4/3 206/4/3
f 235/3/3 211/3/3 186/3/3
f 235/4/3 186/4/3 234/4/3
f 236/4/3 224/4/3 231/4/3
f 236/4/3 231/4/3 230/4/3
f 237/4/3 224/4/3 236/4/3
f 238/1/3 237/1/3 236/1/3
f 240/3/3 233/3/3 232/3/3
f 241/2/3 227/2/3 233/2/3
f 241/3/3 233/3/3 240/3/3
f 242/2/3 209/2/3 227/2/3
f 242/2/3 227/2/3 241/2/3
f 243/3/3 210/3/3 209/3/3
f 243/2/3 209/2/3 242/2/3
f 244/3/3 243/3/3 242/3/3
f 244/3/3 210/3/3 243/3/3
f 245/4/3 205/4/3 210/4/3
f 245/3/3 210/3/3 244/3/3
f 246/2/3 206/2/3 205/2/3
f 246/4/3 205/4/3 245/4/3
f 247/3/3 239/3/3 238/3/3
f 247/1/3 238/1/3 236/1/3
f 248/3/3 239/3/3 247/3/3
f 249/2/3 206/2/3 246/2/3
f 249/2/3 246/2/3 245/2/3
f 250/4/3 234/4/3 206/4/3
f 250/2/3 206/2/3 249/2/3
f 251/3/3 211/3/3 235/3/3
f 251/2/3 212/2/3 211/2/3
f 252/4/3 228/4/3 212/4/3
f 252/2/3 212/2/3 251/2/3
f 253/2/3 230/2/3 229/2/3
f 253/4/3 228/4/3 252/4/3
f 253/2/3 229/2/3 228/2/3
f 254/4/3 234/4/3 250/4/3
f 254/4/3 250/4/3 249/4/3
f 255/1/3 235/1/3 234/1/3
f 255/4/3 234/4/3 254/4/3
f 256/3/3 251/3/3 235/3/3
f 256/1/3 235/1/3 255/1/3
f 257/4/3 252/4/3 251/4/3
f 257/3/3 251/3/3 256/3/3
f 258/1/3 247/1/3 236/1/3
f 260/4/3 254/4/3 249/4/3
f 261/1/3 255/1/3 254/1/3
f 261/4/3 254/4/3 260/4/3
f 262/2/3 241/2/3 240/2/3
f 262/2/3 242/2/3 241/2/3
f 263/2/3 242/2/3 262/2/3
f 264/2/3 242/2/3 263/2/3
f 265/3/3 244/3/3 242/3/3
f 265/2/3 242/2/3 264/2/3
f 266/4/3 245/4/3 244/4/3
f 266/3/3 244/3/3 265/3/3
f 267/4/3 245/4/3 266/4/3
f 268/2/3 249/2/3 245/2/3
f 268/4/3 245/4/3 267/4/3
f 269/4/3 260/4/3 249/4/3
f 269/2/3 249/2/3 268/2/3
f 270/3/3 259/3/3 258/3/3
f 270/1/3 258/1/3 236/1/3
f 271/3/3 259/3/3 270/3/3
f 272/4/3 260/4/3 269/4/3
f 273/1/3 261/1/3 260/1/3
f 273/4/3 260/4/3 272/4/3
f 274/1/3 255/1/3 261/1/3
f 274/1/3 261/1/3 273/1/3
f 275/3/3 253/3/3 252/3/3
f 275/4/3 252/4/3 257/4/3
f 276/2/3 230/2/3 253/2/3
f 276/3/3 253/3/3 275/3/3
f 277/4/3 236/4/3 230/4/3
f 277/2/3 230/2/3 276/2/3
f 278/1/3 270/1/3 236/1/3
f 278/4/3 236/4/3 277/4/3
f 279/1/3 270/1/3 278/1/3
f 280/1/3 255/1/3 274/1/3
f 281/3/3 256/3/3 255/3/3
f 281/1/3 255/1/3 280/1/3
f 282/2/3 257/2/3 256/2/3
f 282/3/3 256/3/3 281/3/3
f 283/4/3 275/4/3 257/4/3
f 283/2/3 257/2/3 282/2/3
f 284/4/3 275/4/3 283/4/3
f 288/3/3 286/3/3 285/3/3
f 289/3/3 286/3/3 288/3/3
f 290/3/3 286/3/3 289/3/3
f 291/3/3 286/3/3 290/3/3
f 292/3/3 286/3/3 291/3/3
f 293/3/3 286/3/3 292/3/3
f 294/3/3 286/3/3 293/3/3
f 295/3/3 286/3/3 294/3/3
f 296/3/3 286/3/3 295/3/3
f 297/3/3 286/3/3 296/3/3
f 300/3/3 288/3/3 287/3/3
f 301/3/3 288/3/3 300/3/3
f 302/3/3 298/3/3 297/3/3
f 303/3/3 298/3/3 302/3/3
f 306/3/3 300/3/3 299/3/3
f 307/3/3 300/3/3 306/3/3
f 308/3/3 300/3/3 307/3/3
f 309/3/3 306/3/3 305/3/3
f 310/3/3 306/3/3 309/3/3
f 311/3/3 309/3/3 305/3/3
f 312/3/3 309/3/3 311/3/3
f 316/3/3 314/3/3 313/3/3
f 317/3/3 314/3/3 316/3/3
f 319/3/3 304/3/3 303/3/3
f 320/3/3 304/3/3 319/3/3
f 321/3/3 316/3/3 315/3/3
f 322/3/3 319/3/3 318/3/3
f 323/3/3 319/3/3 322/3/3
f 324/3/3 319/3/3 323/3/3
f 326/3/3 321/3/3 315/3/3
f 328/3/3 325/3/3 324/3/3
f 329/3/3 325/3/3 328/3/3
f 330/3/3 328/3/3 327/3/3
f 332/3/3 330/3/3 327/3/3
f 332/3/3 331/3/3 330/3/3
f 333/3/3 331/3/3 332/3/3
f 334/3/3 326/3/3 315/3/3
f 336/3/3 334/3/3 315/3/3
f 336/3/3 335/3/3 334/3/3
f 337/3/3 335/3/3 336/3/3
f 338/3/3 335/3/3 337/3/3
f 341/3/3 340/3/3 339/3/3
f 341/3/3 339/3/3 338/3/3
f 341/3/3 338/3/3 337/3/3
f 342/3/3 340/3/3 341/3/3
f 346/3/3 331/3/3 333/3/3
f 347/3/3 331/3/3 346/3/3
f 348/3/3 344/3/3 343/3/3
f 348/3/3 343/3/3 342/3/3
f 349/3/3 344/3/3 348/3/3
f 356/3/3 346/3/3 345/3/3
f 357/3/3 346/3/3 356/3/3
f 358/3/3 350/3/3 349/3/3
f 358/3/3 351/3/3 350/3/3
f 359/3/3 351/3/3 358/3/3
f 363/3/3 355/3/3 354/3/3
f 363/3/3 356/3/3 355/3/3
f 363/3/3 353/3/3 352/3/3
f 363/3/3 354/3/3 353/3/3
f 364/3/3 356/3/3 363/3/3
f 365/3/3 362/3/3 361/3/3
f 365/3/3 361/3/3 360/3/3
f 365/3/3 363/3/3 362/3/3
f 365/3/3 360/3/3 359/3/3
f 366/3/3 363/3/3 365/3/3
f 369/3/3 368/3/3 367/3/3
f 370/3/3 368/3/3 369/3/3
f 373/3/3 372/3/3 371/3/3
f 374/3/3 372/3/3 373/3/3
f 375/3/4 376/3/4 378/3/4
f 378/3/4 376/3/4 379/3/4
f 377/3/4 378/3/4 382/3/4
f 379/3/4 380/3/4 382/3/4
f 378/3/4 379/3/4 382/3/4
f 382/3/4 380/3/4 383/3/4
f 381/3/4 382/3/4 386/3/4
f 383/3/4 384/3/4 386/3/4
f 382/3/4 383/3/4 386/3/4
f 385/3/4 386/3/4 387/3/4
f 387/3/4 386/3/4 388/3/4
f 388/3/4 386/3/4 390/3/4
f 386/3/4 384/3/4 391/3/4
f 389/3/4 390/3/4 391/3/4
f 390/3/4 386/3/4 391/3/4
f 391/3/4 384/3/4 392/3/4
f 389/3/4 391/3/4 393/3/4
f 389/3/4 393/3/4 395/3/4
f 393/3/4 394/3/4 395/3/4
f 395/3/4 394/3/4 396/3/4
f 389/3/4 395/3/4 397/3/4
f 389/3/4 397/3/4 399/3/4
f 397/3/4 398/3/4 399/3/4
f 399/3/4 398/3/4 400/3/4
f 400/3/4 398/3/4 401/3/4
f 401/3/4 398/3/4 402/3/4
f 402/3/4 398/3/4 403/3/4
f 403/3/4 398/3/4 404/3/4
f 402/3/4 403/3/4 405/3/4
f 405/3/4 403/3/4 406/3/4
f 406/3/4 403/3/4 407/3/4
f 407/3/4 403/3/4 408/3/4
f 406/3/4 407/3/4 409/3/4
f 409/3/4 407/3/4 410/3/4
f 410/3/4 407/3/4 411/3/4
f 411/3/4 407/3/4 412/3/4
f 410/3/4 411/3/4 413/3/4
f 413/3/4 411/3/4 414/3/4
f 419/3/5 416/3/5 415/3/5
f 422/3/5 418/3/5 417/3/5
f 423/3/5 420/3/5 419/3/5
f 423/3/5 419/3/5 415/3/5
f 424/3/5 420/3/5 423/3/5
f 425/3/5 422/3/5 421/3/5
f 426/3/5 418/3/5 422/3/5
f 426/3/5 422/3/5 425/3/5
f 434/3/5 428/3/5 427/3/5
f 435/1/5 429/1/5 428/1/5
f 435/3/5 428/3/5 434/3/5
f 436/1/5 429/1/5 435/1/5
f 437/1/5 431/1/5 430/1/5
f 438/3/5 432/3/5 431/3/5
f 438/1/5 431/1/5 437/1/5
f 439/2/5 433/2/5 432/2/5
f 439/3/5 432/3/5 438/3/5
f 440/2/5 433/2/5 439/2/5
f 443/3/5 436/3/5 435/3/5
f 443/3/5 437/3/5 436/3/5
f 444/3/5 437/3/5 443/3/5
f 445/3/5 437/3/5 444/3/5
f 446/3/5 437/3/5 445/3/5
f 447/3/5 445/3/5 444/3/5
f 448/3/5 445/3/5 447/3/5
f 449/3/5 442/3/5 441/3/5
f 450/3/5 442/3/5 449/3/5
f 458/3/5 452/3/5 451/3/5
f 459/3/5 452/3/5 458/3/5
f 460/3/5 454/3/5 453/3/5
f 461/3/5 454/3/5 460/3/5
f 462/2/5 456/2/5 455/2/5
f 463/2/5 456/2/5 462/2/5
f 464/3/5 458/3/5 457/3/5
f 465/3/5 458/3/5 464/3/5
f 471/2/5 467/2/5 466/2/5
f 472/2/5 467/2/5 471/2/5
f 473/4/5 469/4/5 468/4/5
f 474/4/5 469/4/5 473/4/5
f 476/3/5 471/3/5 470/3/5
f 477/3/5 471/3/5 476/3/5
f 478/3/5 475/3/5 474/3/5
f 479/3/5 475/3/5 478/3/5
f 483/3/5 481/3/5 480/3/5
f 484/3/5 481/3/5 483/3/5
f 485/3/5 483/3/5 482/3/5
f 486/3/5 483/3/5 485/3/5
f 489/4/5 488/4/5 487/4/5
f 490/4/5 488/4/5 489/4/5
f 492/3/5 491/3/5 490/3/5
f 493/3/5 491/3/5 492/3/5
f 496/1/5 495/1/5 494/1/5
f 497/1/5 495/1/5 496/1/5
f 499/3/5 498/3/5 497/3/5
f 500/3/5 498/3/5 499/3/5
f 501/4/6 502/4/6 503/4/6
f 503/4/6 502/4/6 504/4/6
f 504/3/6 505/3/6 506/3/6
f 506/3/6 505/3/6 507/3/6
f 508/3/6 509/3/6 518/3/6
f 518/3/6 509/3/6 519/3/6
f 510/4/6 511/4/6 520/4/6
f 511/1/6 512/1/6 521/1/6
f 520/4/6 511/4/6 521/4/6
f 521/1/6 512/1/6 522/1/6
f 513/1/6 514/1/6 523/1/6
f 523/1/6 514/1/6 524/1/6
f 515/1/6 516/1/6 525/1/6
f 525/1/6 516/1/6 526/1/6
f 517/3/6 518/3/6 528/3/6
f 528/3/6 518/3/6 529/3/6
f 526/3/6 527/3/6 530/3/6
f 530/3/6 527/3/6 531/3/6
f 532/1/6 533/1/6 539/1/6
f 539/1/6 533/1/6 540/1/6
f 534/3/6 535/3/6 541/3/6
f 541/3/6 535/3/6 542/3/6
f 536/3/6 537/3/6 544/3/6
f 544/3/6 537/3/6 545/3/6
f 538/3/6 539/3/6 547/3/6
f 547/3/6 539/3/6 548/3/6
f 540/3/6 541/3/6 549/3/6
f 549/3/6 541/3/6 550/3/6
f 542/3/6 543/3/6 551/3/6
f 551/3/6 543/3/6 552/3/6
f 545/3/6 546/3/6 553/3/6
f 553/3/6 546/3/6 554/3/6
f 555/3/6 556/3/6 561/3/6
f 561/3/6 556/3/6 562/3/6
f 557/3/6 558/3/6 563/3/6
f 563/3/6 558/3/6 564/3/6
f 559/3/6 560/3/6 565/3/6
f 565/3/6 560/3/6 566/3/6
