# MagicaVoxel @ Ephtracy

# material
mtllib flag.mtl
usemtl palette

# normals
vn -1 0 0
vn 1 0 0
vn 0 0 1
vn 0 0 -1
vn 0 -1 0
vn 0 1 0

# texcoords
vt 0.146484 0.5
vt 0.240234 0.5

# verts
v -13 0 1
v -13 0 -0
v -13 14 1
v -13 14 -0
v -12 0 2
v -12 0 1
v -12 0 -0
v -12 0 -1
v -12 14 1
v -12 14 -0
v -12 15 2
v -12 15 1
v -12 15 -0
v -12 15 -1
v -12 21 1
v -12 21 -0
v -11 0 3
v -11 0 2
v -11 0 -1
v -11 0 -2
v -11 15 3
v -11 15 2
v -11 15 1
v -11 15 -0
v -11 15 -1
v -11 15 -2
v -11 21 1
v -11 21 -0
v -11 22 2
v -11 22 -1
v -10 0 4
v -10 0 3
v -10 14 4
v -10 14 3
v -10 15 3
v -10 15 2
v -10 21 3
v -10 21 2
v -10 22 1
v -10 22 -0
v -10 32 1
v -10 32 -0
v -8 22 1
v -8 22 -0
v -8 23 1
v -8 23 -0
v -7 21 1
v -7 21 -0
v -7 22 1
v -7 22 -0
v -9 0 4
v -9 0 3
v -9 14 4
v -9 14 3
v -9 15 3
v -9 15 2
v -9 21 3
v -9 21 2
v -9 22 1
v -9 22 -0
v -9 23 1
v -9 23 -0
v -9 31 1
v -9 31 -0
v -9 32 1
v -9 32 -0
v -8 0 3
v -8 0 2
v -8 0 -1
v -8 0 -2
v -8 15 3
v -8 15 2
v -8 15 1
v -8 15 -0
v -8 15 -1
v -8 15 -2
v -8 21 1
v -8 21 -0
v -8 22 2
v -8 22 1
v -8 22 -0
v -8 22 -1
v -7 0 2
v -7 0 1
v -7 0 -0
v -7 0 -1
v -7 14 1
v -7 14 -0
v -7 15 2
v -7 15 1
v -7 15 -0
v -7 15 -1
v -7 21 1
v -7 21 -0
v -6 0 1
v -6 0 -0
v -6 14 1
v -6 14 -0
v -4 21 1
v -4 21 -0
v -4 22 1
v -4 22 -0
v -4 30 1
v -4 30 -0
v -4 31 1
v -4 31 -0
v -2 22 1
v -2 22 -0
v -2 23 1
v -2 23 -0
v -1 23 1
v -1 23 -0
v -1 24 1
v -1 24 -0
v -1 29 1
v -1 29 -0
v -1 30 1
v -1 30 -0
v 0 24 1
v 0 24 -0
v 0 25 1
v 0 25 -0
v 3 28 1
v 3 28 -0
v 3 29 1
v 3 29 -0
v 5 25 1
v 5 25 -0
v 5 26 1
v 5 26 -0
v 6 26 1
v 6 26 -0
v 6 27 1
v 6 27 -0
v 7 27 1
v 7 27 -0
v 7 28 1
v 7 28 -0
v -10 0 4
v -10 14 4
v -9 0 4
v -9 14 4
v -11 0 3
v -11 15 3
v -10 0 3
v -10 14 3
v -10 15 3
v -10 21 3
v -9 0 3
v -9 14 3
v -9 15 3
v -9 21 3
v -8 0 3
v -8 15 3
v -12 0 2
v -12 15 2
v -11 0 2
v -11 15 2
v -11 22 2
v -10 15 2
v -10 21 2
v -9 15 2
v -9 21 2
v -8 0 2
v -8 15 2
v -8 22 2
v -7 0 2
v -7 15 2
v -13 0 1
v -13 14 1
v -12 0 1
v -12 14 1
v -12 15 1
v -12 21 1
v -11 15 1
v -11 21 1
v -10 22 1
v -10 32 1
v -9 22 1
v -9 23 1
v -9 31 1
v -9 32 1
v -8 15 1
v -8 21 1
v -8 22 1
v -8 23 1
v -7 0 1
v -7 14 1
v -7 15 1
v -7 21 1
v -7 22 1
v -6 0 1
v -6 14 1
v -4 21 1
v -4 22 1
v -4 30 1
v -4 31 1
v -2 22 1
v -2 23 1
v -1 23 1
v -1 24 1
v -1 29 1
v -1 30 1
v 0 24 1
v 0 25 1
v 3 28 1
v 3 29 1
v 5 25 1
v 5 26 1
v 6 26 1
v 6 27 1
v 7 27 1
v 7 28 1
v -13 0 -0
v -13 14 -0
v -12 0 -0
v -12 14 -0
v -12 15 -0
v -12 21 -0
v -11 15 -0
v -11 21 -0
v -10 22 -0
v -10 32 -0
v -9 22 -0
v -9 23 -0
v -9 31 -0
v -9 32 -0
v -8 15 -0
v -8 21 -0
v -8 22 -0
v -8 23 -0
v -7 0 -0
v -7 14 -0
v -7 15 -0
v -7 21 -0
v -7 22 -0
v -6 0 -0
v -6 14 -0
v -4 21 -0
v -4 22 -0
v -4 30 -0
v -4 31 -0
v -2 22 -0
v -2 23 -0
v -1 23 -0
v -1 24 -0
v -1 29 -0
v -1 30 -0
v 0 24 -0
v 0 25 -0
v 3 28 -0
v 3 29 -0
v 5 25 -0
v 5 26 -0
v 6 26 -0
v 6 27 -0
v 7 27 -0
v 7 28 -0
v -12 0 -1
v -12 15 -1
v -11 0 -1
v -11 15 -1
v -11 22 -1
v -8 0 -1
v -8 15 -1
v -8 22 -1
v -7 0 -1
v -7 15 -1
v -11 0 -2
v -11 15 -2
v -8 0 -2
v -8 15 -2
v -10 0 4
v -9 0 4
v -11 0 3
v -10 0 3
v -9 0 3
v -8 0 3
v -12 0 2
v -11 0 2
v -8 0 2
v -7 0 2
v -13 0 1
v -12 0 1
v -7 0 1
v -6 0 1
v -13 0 -0
v -12 0 -0
v -7 0 -0
v -6 0 -0
v -12 0 -1
v -11 0 -1
v -8 0 -1
v -7 0 -1
v -11 0 -2
v -8 0 -2
v -7 21 1
v -4 21 1
v -7 21 -0
v -4 21 -0
v -8 22 1
v -7 22 1
v -4 22 1
v -2 22 1
v -8 22 -0
v -7 22 -0
v -4 22 -0
v -2 22 -0
v -9 23 1
v -8 23 1
v -2 23 1
v -1 23 1
v -9 23 -0
v -8 23 -0
v -2 23 -0
v -1 23 -0
v -1 24 1
v 0 24 1
v -1 24 -0
v 0 24 -0
v 0 25 1
v 5 25 1
v 0 25 -0
v 5 25 -0
v 5 26 1
v 6 26 1
v 5 26 -0
v 6 26 -0
v 6 27 1
v 7 27 1
v 6 27 -0
v 7 27 -0
v -10 14 4
v -9 14 4
v -10 14 3
v -9 14 3
v -13 14 1
v -12 14 1
v -7 14 1
v -6 14 1
v -13 14 -0
v -12 14 -0
v -7 14 -0
v -6 14 -0
v -11 15 3
v -10 15 3
v -9 15 3
v -8 15 3
v -12 15 2
v -11 15 2
v -10 15 2
v -9 15 2
v -8 15 2
v -7 15 2
v -12 15 1
v -11 15 1
v -8 15 1
v -7 15 1
v -12 15 -0
v -11 15 -0
v -8 15 -0
v -7 15 -0
v -12 15 -1
v -11 15 -1
v -8 15 -1
v -7 15 -1
v -11 15 -2
v -8 15 -2
v -10 21 3
v -9 21 3
v -10 21 2
v -9 21 2
v -12 21 1
v -11 21 1
v -8 21 1
v -7 21 1
v -12 21 -0
v -11 21 -0
v -8 21 -0
v -7 21 -0
v -11 22 2
v -8 22 2
v -10 22 1
v -9 22 1
v -8 22 1
v -10 22 -0
v -9 22 -0
v -8 22 -0
v -11 22 -1
v -8 22 -1
v 3 28 1
v 7 28 1
v 3 28 -0
v 7 28 -0
v -1 29 1
v 3 29 1
v -1 29 -0
v 3 29 -0
v -4 30 1
v -1 30 1
v -4 30 -0
v -1 30 -0
v -9 31 1
v -4 31 1
v -9 31 -0
v -4 31 -0
v -10 32 1
v -9 32 1
v -10 32 -0
v -9 32 -0

# faces
f 3/2/1 2/2/1 1/2/1
f 4/2/1 2/2/1 3/2/1
f 9/2/1 6/2/1 5/2/1
f 10/2/1 8/2/1 7/2/1
f 11/2/1 9/2/1 5/2/1
f 11/2/1 10/2/1 9/2/1
f 12/2/1 10/2/1 11/2/1
f 13/2/1 8/2/1 10/2/1
f 13/2/1 10/2/1 12/2/1
f 14/2/1 8/2/1 13/2/1
f 15/2/1 13/2/1 12/2/1
f 16/2/1 13/2/1 15/2/1
f 21/2/1 18/2/1 17/2/1
f 22/2/1 18/2/1 21/2/1
f 25/2/1 20/2/1 19/2/1
f 26/2/1 20/2/1 25/2/1
f 27/2/1 23/2/1 22/2/1
f 28/2/1 25/2/1 24/2/1
f 29/2/1 27/2/1 22/2/1
f 29/2/1 28/2/1 27/2/1
f 30/2/1 25/2/1 28/2/1
f 30/2/1 28/2/1 29/2/1
f 33/2/1 32/2/1 31/2/1
f 34/2/1 32/2/1 33/2/1
f 37/2/1 36/2/1 35/2/1
f 38/2/1 36/2/1 37/2/1
f 41/2/1 40/2/1 39/2/1
f 42/2/1 40/2/1 41/2/1
f 45/1/1 44/1/1 43/1/1
f 46/1/1 44/1/1 45/1/1
f 49/1/1 48/1/1 47/1/1
f 50/1/1 48/1/1 49/1/1
f 51/2/2 52/2/2 53/2/2
f 53/2/2 52/2/2 54/2/2
f 55/2/2 56/2/2 57/2/2
f 57/2/2 56/2/2 58/2/2
f 59/2/2 60/2/2 61/2/2
f 61/2/2 60/2/2 62/2/2
f 63/2/2 64/2/2 65/2/2
f 65/2/2 64/2/2 66/2/2
f 67/2/2 68/2/2 71/2/2
f 71/2/2 68/2/2 72/2/2
f 69/2/2 70/2/2 75/2/2
f 75/2/2 70/2/2 76/2/2
f 72/2/2 73/2/2 77/2/2
f 74/2/2 75/2/2 78/2/2
f 72/2/2 77/2/2 79/2/2
f 77/2/2 78/2/2 79/2/2
f 79/2/2 78/2/2 80/2/2
f 78/2/2 75/2/2 81/2/2
f 80/2/2 78/2/2 81/2/2
f 81/2/2 75/2/2 82/2/2
f 83/2/2 84/2/2 87/2/2
f 85/2/2 86/2/2 88/2/2
f 83/2/2 87/2/2 89/2/2
f 87/2/2 88/2/2 89/2/2
f 89/2/2 88/2/2 90/2/2
f 88/2/2 86/2/2 91/2/2
f 90/2/2 88/2/2 91/2/2
f 91/2/2 86/2/2 92/2/2
f 90/2/2 91/2/2 93/2/2
f 93/2/2 91/2/2 94/2/2
f 95/2/2 96/2/2 97/2/2
f 97/2/2 96/2/2 98/2/2
f 99/1/2 100/1/2 101/1/2
f 101/1/2 100/1/2 102/1/2
f 103/1/2 104/1/2 105/1/2
f 105/1/2 104/1/2 106/1/2
f 107/1/2 108/1/2 109/1/2
f 109/1/2 108/1/2 110/1/2
f 111/1/2 112/1/2 113/1/2
f 113/1/2 112/1/2 114/1/2
f 115/1/2 116/1/2 117/1/2
f 117/1/2 116/1/2 118/1/2
f 119/1/2 120/1/2 121/1/2
f 121/1/2 120/1/2 122/1/2
f 123/1/2 124/1/2 125/1/2
f 125/1/2 124/1/2 126/1/2
f 127/1/2 128/1/2 129/1/2
f 129/1/2 128/1/2 130/1/2
f 131/1/2 132/1/2 133/1/2
f 133/1/2 132/1/2 134/1/2
f 135/1/2 136/1/2 137/1/2
f 137/1/2 136/1/2 138/1/2
f 141/2/3 140/2/3 139/2/3
f 142/2/3 140/2/3 141/2/3
f 145/2/3 144/2/3 143/2/3
f 146/2/3 144/2/3 145/2/3
f 147/2/3 144/2/3 146/2/3
f 150/2/3 148/2/3 147/2/3
f 150/2/3 147/2/3 146/2/3
f 151/2/3 148/2/3 150/2/3
f 152/2/3 148/2/3 151/2/3
f 153/2/3 150/2/3 149/2/3
f 153/2/3 151/2/3 150/2/3
f 154/2/3 151/2/3 153/2/3
f 157/2/3 156/2/3 155/2/3
f 158/2/3 156/2/3 157/2/3
f 160/2/3 159/2/3 158/2/3
f 161/2/3 159/2/3 160/2/3
f 163/2/3 159/2/3 161/2/3
f 165/2/3 163/2/3 162/2/3
f 166/2/3 159/2/3 163/2/3
f 166/2/3 163/2/3 165/2/3
f 167/2/3 165/2/3 164/2/3
f 168/2/3 165/2/3 167/2/3
f 171/2/3 170/2/3 169/2/3
f 172/2/3 170/2/3 171/2/3
f 175/2/3 174/2/3 173/2/3
f 176/2/3 174/2/3 175/2/3
f 179/2/3 178/2/3 177/2/3
f 180/2/3 178/2/3 179/2/3
f 181/2/3 178/2/3 180/2/3
f 182/2/3 178/2/3 181/2/3
f 186/1/3 181/1/3 180/1/3
f 189/2/3 184/2/3 183/2/3
f 190/2/3 184/2/3 189/2/3
f 191/1/3 186/1/3 185/1/3
f 192/2/3 188/2/3 187/2/3
f 193/2/3 188/2/3 192/2/3
f 194/1/3 191/1/3 190/1/3
f 195/1/3 186/1/3 191/1/3
f 195/1/3 191/1/3 194/1/3
f 196/1/3 181/1/3 186/1/3
f 196/1/3 186/1/3 195/1/3
f 197/1/3 181/1/3 196/1/3
f 198/1/3 196/1/3 195/1/3
f 199/1/3 196/1/3 198/1/3
f 200/1/3 196/1/3 199/1/3
f 201/1/3 196/1/3 200/1/3
f 202/1/3 196/1/3 201/1/3
f 203/1/3 196/1/3 202/1/3
f 204/1/3 202/1/3 201/1/3
f 205/1/3 202/1/3 204/1/3
f 206/1/3 202/1/3 205/1/3
f 207/1/3 202/1/3 206/1/3
f 208/1/3 206/1/3 205/1/3
f 209/1/3 206/1/3 208/1/3
f 210/1/3 206/1/3 209/1/3
f 211/1/3 206/1/3 210/1/3
f 212/1/3 206/1/3 211/1/3
f 213/1/3 206/1/3 212/1/3
f 214/2/4 215/2/4 216/2/4
f 216/2/4 215/2/4 217/2/4
f 218/2/4 219/2/4 220/2/4
f 220/2/4 219/2/4 221/2/4
f 222/2/4 223/2/4 224/2/4
f 224/2/4 223/2/4 225/2/4
f 225/2/4 223/2/4 226/2/4
f 226/2/4 223/2/4 227/2/4
f 225/1/4 226/1/4 231/1/4
f 228/2/4 229/2/4 234/2/4
f 234/2/4 229/2/4 235/2/4
f 230/1/4 231/1/4 236/1/4
f 232/2/4 233/2/4 237/2/4
f 237/2/4 233/2/4 238/2/4
f 235/1/4 236/1/4 239/1/4
f 236/1/4 231/1/4 240/1/4
f 239/1/4 236/1/4 240/1/4
f 231/1/4 226/1/4 241/1/4
f 240/1/4 231/1/4 241/1/4
f 241/1/4 226/1/4 242/1/4
f 240/1/4 241/1/4 243/1/4
f 243/1/4 241/1/4 244/1/4
f 244/1/4 241/1/4 245/1/4
f 245/1/4 241/1/4 246/1/4
f 246/1/4 241/1/4 247/1/4
f 247/1/4 241/1/4 248/1/4
f 246/1/4 247/1/4 249/1/4
f 249/1/4 247/1/4 250/1/4
f 250/1/4 247/1/4 251/1/4
f 251/1/4 247/1/4 252/1/4
f 250/1/4 251/1/4 253/1/4
f 253/1/4 251/1/4 254/1/4
f 254/1/4 251/1/4 255/1/4
f 255/1/4 251/1/4 256/1/4
f 256/1/4 251/1/4 257/1/4
f 257/1/4 251/1/4 258/1/4
f 259/2/4 260/2/4 261/2/4
f 261/2/4 260/2/4 262/2/4
f 262/2/4 263/2/4 265/2/4
f 265/2/4 263/2/4 266/2/4
f 264/2/4 265/2/4 267/2/4
f 267/2/4 265/2/4 268/2/4
f 269/2/4 270/2/4 271/2/4
f 271/2/4 270/2/4 272/2/4
f 276/2/5 274/2/5 273/2/5
f 277/2/5 274/2/5 276/2/5
f 280/2/5 276/2/5 275/2/5
f 280/2/5 278/2/5 277/2/5
f 280/2/5 277/2/5 276/2/5
f 281/2/5 278/2/5 280/2/5
f 284/2/5 280/2/5 279/2/5
f 284/2/5 282/2/5 281/2/5
f 284/2/5 281/2/5 280/2/5
f 285/2/5 282/2/5 284/2/5
f 287/2/5 284/2/5 283/2/5
f 287/2/5 286/2/5 285/2/5
f 287/2/5 285/2/5 284/2/5
f 288/2/5 286/2/5 287/2/5
f 289/2/5 286/2/5 288/2/5
f 290/2/5 286/2/5 289/2/5
f 291/2/5 289/2/5 288/2/5
f 292/2/5 289/2/5 291/2/5
f 293/2/5 289/2/5 292/2/5
f 294/2/5 289/2/5 293/2/5
f 295/2/5 293/2/5 292/2/5
f 296/2/5 293/2/5 295/2/5
f 299/1/5 298/1/5 297/1/5
f 300/1/5 298/1/5 299/1/5
f 305/1/5 302/1/5 301/1/5
f 306/1/5 302/1/5 305/1/5
f 307/1/5 304/1/5 303/1/5
f 308/1/5 304/1/5 307/1/5
f 313/1/5 310/1/5 309/1/5
f 314/1/5 310/1/5 313/1/5
f 315/1/5 312/1/5 311/1/5
f 316/1/5 312/1/5 315/1/5
f 319/1/5 318/1/5 317/1/5
f 320/1/5 318/1/5 319/1/5
f 323/1/5 322/1/5 321/1/5
f 324/1/5 322/1/5 323/1/5
f 327/1/5 326/1/5 325/1/5
f 328/1/5 326/1/5 327/1/5
f 331/1/5 330/1/5 329/1/5
f 332/1/5 330/1/5 331/1/5
f 333/2/6 334/2/6 335/2/6
f 335/2/6 334/2/6 336/2/6
f 337/2/6 338/2/6 341/2/6
f 341/2/6 338/2/6 342/2/6
f 339/2/6 340/2/6 343/2/6
f 343/2/6 340/2/6 344/2/6
f 345/2/6 346/2/6 350/2/6
f 350/2/6 346/2/6 351/2/6
f 347/2/6 348/2/6 352/2/6
f 352/2/6 348/2/6 353/2/6
f 349/2/6 350/2/6 355/2/6
f 355/2/6 350/2/6 356/2/6
f 353/2/6 354/2/6 357/2/6
f 357/2/6 354/2/6 358/2/6
f 359/2/6 360/2/6 363/2/6
f 363/2/6 360/2/6 364/2/6
f 361/2/6 362/2/6 365/2/6
f 365/2/6 362/2/6 366/2/6
f 364/2/6 365/2/6 367/2/6
f 367/2/6 365/2/6 368/2/6
f 369/2/6 370/2/6 371/2/6
f 371/2/6 370/2/6 372/2/6
f 373/2/6 374/2/6 377/2/6
f 377/2/6 374/2/6 378/2/6
f 375/2/6 376/2/6 379/2/6
f 379/2/6 376/2/6 380/2/6
f 381/2/6 382/2/6 383/2/6
f 383/2/6 382/2/6 384/2/6
f 384/2/6 382/2/6 385/2/6
f 381/2/6 383/2/6 386/2/6
f 384/2/6 385/2/6 387/2/6
f 387/2/6 385/2/6 388/2/6
f 381/2/6 386/2/6 389/2/6
f 386/2/6 387/2/6 389/2/6
f 387/2/6 388/2/6 389/2/6
f 389/2/6 388/2/6 390/2/6
f 391/1/6 392/1/6 393/1/6
f 393/1/6 392/1/6 394/1/6
f 395/1/6 396/1/6 397/1/6
f 397/1/6 396/1/6 398/1/6
f 399/1/6 400/1/6 401/1/6
f 401/1/6 400/1/6 402/1/6
f 403/1/6 404/1/6 405/1/6
f 405/1/6 404/1/6 406/1/6
f 407/2/6 408/2/6 409/2/6
f 409/2/6 408/2/6 410/2/6
