# MagicaVoxel @ Ephtracy

# material
mtllib wall2.mtl
usemtl palette

# normals
vn -1 0 0
vn 1 0 0
vn 0 0 1
vn 0 0 -1
vn 0 -1 0
vn 0 1 0

# texcoords
vt 0.310547 0.5
vt 0.341797 0.5
vt 0.587891 0.5
vt 0.623047 0.5
vt 0.626953 0.5

# verts
v -20 11 8
v -20 11 -8
v -20 14 8
v -20 14 -8
v -19 0 7
v -19 0 -7
v -19 11 7
v -19 11 -7
v -19 14 7
v -19 14 -7
v -19 15 7
v -19 15 -7
v -16 12 8
v -16 12 7
v -16 13 8
v -16 13 7
v -15 8 7
v -15 8 6
v -15 9 7
v -15 9 6
v -14 6 7
v -14 6 6
v -14 8 7
v -14 8 6
v -12 3 7
v -12 3 6
v -12 4 7
v -12 4 6
v -10 12 8
v -10 12 7
v -10 13 8
v -10 13 7
v -7 5 7
v -7 5 6
v -7 7 7
v -7 7 6
v -6 12 8
v -6 12 7
v -6 13 8
v -6 13 7
v -2 9 7
v -2 9 6
v -2 10 7
v -2 10 6
v 2 4 7
v 2 4 6
v 2 5 7
v 2 5 6
v 2 12 8
v 2 12 7
v 2 13 8
v 2 13 7
v 3 2 7
v 3 2 6
v 3 4 7
v 3 4 6
v 9 9 7
v 9 9 6
v 9 10 7
v 9 10 6
v 9 12 8
v 9 12 7
v 9 13 8
v 9 13 7
v 11 7 7
v 11 7 6
v 11 9 7
v 11 9 6
v 13 2 7
v 13 2 6
v 13 3 7
v 13 3 6
v 17 12 8
v 17 12 7
v 17 13 8
v 17 13 7
v 18 7 7
v 18 7 6
v 18 8 7
v 18 8 6
v 19 11 8
v 19 11 7
v 19 12 8
v 19 12 7
v -19 11 8
v -19 11 7
v -19 12 8
v -19 12 7
v -18 12 8
v -18 12 7
v -18 13 8
v -18 13 7
v -17 7 7
v -17 7 6
v -17 9 7
v -17 9 6
v -16 6 7
v -16 6 6
v -16 7 7
v -16 7 6
v -13 3 7
v -13 3 6
v -13 4 7
v -13 4 6
v -12 12 8
v -12 12 7
v -12 13 8
v -12 13 7
v -9 5 7
v -9 5 6
v -9 7 7
v -9 7 6
v -7 12 8
v -7 12 7
v -7 13 8
v -7 13 7
v -3 9 7
v -3 9 6
v -3 10 7
v -3 10 6
v -1 12 8
v -1 12 7
v -1 13 8
v -1 13 7
v 0 3 7
v 0 3 6
v 0 5 7
v 0 5 6
v 1 2 7
v 1 2 6
v 1 3 7
v 1 3 6
v 5 12 8
v 5 12 7
v 5 13 8
v 5 13 7
v 7 8 7
v 7 8 6
v 7 10 7
v 7 10 6
v 8 7 7
v 8 7 6
v 8 8 7
v 8 8 6
v 12 2 7
v 12 2 6
v 12 3 7
v 12 3 6
v 12 12 8
v 12 12 7
v 12 13 8
v 12 13 7
v 17 7 7
v 17 7 6
v 17 8 7
v 17 8 6
v 19 0 7
v 19 0 -7
v 19 10 7
v 19 10 6
v 19 11 7
v 19 11 6
v 19 11 -7
v 19 14 7
v 19 14 -7
v 19 15 7
v 19 15 -7
v 20 11 8
v 20 11 -8
v 20 14 8
v 20 14 -8
v -20 11 8
v -20 14 8
v -19 11 8
v -19 12 8
v -18 12 8
v -18 13 8
v -16 12 8
v -16 13 8
v -12 12 8
v -12 13 8
v -10 12 8
v -10 13 8
v -7 12 8
v -7 13 8
v -6 12 8
v -6 13 8
v -1 12 8
v -1 13 8
v 2 12 8
v 2 13 8
v 5 12 8
v 5 13 8
v 9 12 8
v 9 13 8
v 12 12 8
v 12 13 8
v 17 12 8
v 17 13 8
v 19 11 8
v 19 12 8
v 20 11 8
v 20 14 8
v -19 0 7
v -19 11 7
v -19 12 7
v -19 14 7
v -19 15 7
v -18 11 7
v -18 12 7
v -18 13 7
v -17 7 7
v -17 9 7
v -16 6 7
v -16 7 7
v -16 12 7
v -16 13 7
v -15 8 7
v -15 9 7
v -15 11 7
v -15 12 7
v -14 6 7
v -14 8 7
v -13 3 7
v -13 4 7
v -12 3 7
v -12 4 7
v -12 11 7
v -12 12 7
v -12 13 7
v -10 11 7
v -10 12 7
v -10 13 7
v -9 5 7
v -9 7 7
v -7 5 7
v -7 7 7
v -7 11 7
v -7 12 7
v -7 13 7
v -6 11 7
v -6 12 7
v -6 13 7
v -3 9 7
v -3 10 7
v -2 9 7
v -2 10 7
v -1 11 7
v -1 12 7
v -1 13 7
v 0 3 7
v 0 5 7
v 1 2 7
v 1 3 7
v 2 4 7
v 2 5 7
v 2 11 7
v 2 12 7
v 2 13 7
v 3 2 7
v 3 4 7
v 5 11 7
v 5 12 7
v 5 13 7
v 7 8 7
v 7 10 7
v 8 7 7
v 8 8 7
v 9 9 7
v 9 10 7
v 9 11 7
v 9 12 7
v 9 13 7
v 11 7 7
v 11 9 7
v 12 2 7
v 12 3 7
v 12 11 7
v 12 12 7
v 12 13 7
v 13 2 7
v 13 3 7
v 17 7 7
v 17 8 7
v 17 11 7
v 17 12 7
v 17 13 7
v 18 7 7
v 18 8 7
v 18 10 7
v 18 11 7
v 19 0 7
v 19 10 7
v 19 11 7
v 19 12 7
v 19 14 7
v 19 15 7
v -17 7 6
v -17 9 6
v -16 6 6
v -16 7 6
v -15 8 6
v -15 9 6
v -14 6 6
v -14 8 6
v -13 3 6
v -13 4 6
v -12 3 6
v -12 4 6
v -9 5 6
v -9 7 6
v -7 5 6
v -7 7 6
v -3 9 6
v -3 10 6
v -2 9 6
v -2 10 6
v 0 3 6
v 0 5 6
v 1 2 6
v 1 3 6
v 2 4 6
v 2 5 6
v 3 2 6
v 3 4 6
v 7 8 6
v 7 10 6
v 8 7 6
v 8 8 6
v 9 9 6
v 9 10 6
v 11 7 6
v 11 9 6
v 12 2 6
v 12 3 6
v 13 2 6
v 13 3 6
v 17 7 6
v 17 8 6
v 18 7 6
v 18 8 6
v -19 0 -7
v -19 11 -7
v -19 14 -7
v -19 15 -7
v 19 0 -7
v 19 11 -7
v 19 14 -7
v 19 15 -7
v -20 11 -8
v -20 14 -8
v 20 11 -8
v 20 14 -8
v -19 0 7
v 19 0 7
v -19 0 -7
v 19 0 -7
v 12 3 7
v 13 3 7
v 12 3 6
v 13 3 6
v -13 4 7
v -12 4 7
v 2 4 7
v 3 4 7
v -13 4 6
v -12 4 6
v 2 4 6
v 3 4 6
v 0 5 7
v 2 5 7
v 0 5 6
v 2 5 6
v -9 7 7
v -7 7 7
v -9 7 6
v -7 7 6
v -15 8 7
v -14 8 7
v 17 8 7
v 18 8 7
v -15 8 6
v -14 8 6
v 17 8 6
v 18 8 6
v -17 9 7
v -15 9 7
v 9 9 7
v 11 9 7
v -17 9 6
v -15 9 6
v 9 9 6
v 11 9 6
v -3 10 7
v -2 10 7
v 7 10 7
v 9 10 7
v -3 10 6
v -2 10 6
v 7 10 6
v 9 10 6
v -20 11 8
v -19 11 8
v 19 11 8
v 20 11 8
v -19 11 7
v 19 11 7
v 19 11 6
v -19 11 -7
v 19 11 -7
v -20 11 -8
v 20 11 -8
v -19 12 8
v -18 12 8
v -16 12 8
v -12 12 8
v -10 12 8
v -7 12 8
v -6 12 8
v -1 12 8
v 2 12 8
v 5 12 8
v 9 12 8
v 12 12 8
v 17 12 8
v 19 12 8
v -19 12 7
v -18 12 7
v -16 12 7
v -15 12 7
v -12 12 7
v -10 12 7
v -7 12 7
v -6 12 7
v -1 12 7
v 2 12 7
v 5 12 7
v 9 12 7
v 12 12 7
v 17 12 7
v 19 12 7
v -18 13 8
v -16 13 8
v -12 13 8
v -10 13 8
v -7 13 8
v -6 13 8
v -1 13 8
v 2 13 8
v 5 13 8
v 9 13 8
v 12 13 8
v 17 13 8
v -18 13 7
v -16 13 7
v -12 13 7
v -10 13 7
v -7 13 7
v -6 13 7
v -1 13 7
v 2 13 7
v 5 13 7
v 9 13 7
v 12 13 7
v 17 13 7
v 1 2 7
v 3 2 7
v 12 2 7
v 13 2 7
v 1 2 6
v 3 2 6
v 12 2 6
v 13 2 6
v -13 3 7
v -12 3 7
v 0 3 7
v 1 3 7
v -13 3 6
v -12 3 6
v 0 3 6
v 1 3 6
v -9 5 7
v -7 5 7
v -9 5 6
v -7 5 6
v -16 6 7
v -14 6 7
v -16 6 6
v -14 6 6
v -17 7 7
v -16 7 7
v 8 7 7
v 11 7 7
v 17 7 7
v 18 7 7
v -17 7 6
v -16 7 6
v 8 7 6
v 11 7 6
v 17 7 6
v 18 7 6
v 7 8 7
v 8 8 7
v 7 8 6
v 8 8 6
v -3 9 7
v -2 9 7
v -3 9 6
v -2 9 6
v -20 14 8
v 20 14 8
v -19 14 7
v 19 14 7
v -19 14 -7
v 19 14 -7
v -20 14 -8
v 20 14 -8
v -19 15 7
v 19 15 7
v -19 15 -7
v 19 15 -7

# faces
f 3/5/1 2/5/1 1/5/1
f 4/5/1 2/5/1 3/5/1
f 7/2/1 6/2/1 5/2/1
f 8/2/1 6/2/1 7/2/1
f 11/5/1 10/5/1 9/5/1
f 12/5/1 10/5/1 11/5/1
f 15/5/1 14/5/1 13/5/1
f 16/5/1 14/5/1 15/5/1
f 19/2/1 18/2/1 17/2/1
f 20/2/1 18/2/1 19/2/1
f 23/2/1 22/2/1 21/2/1
f 24/2/1 22/2/1 23/2/1
f 27/2/1 26/2/1 25/2/1
f 28/2/1 26/2/1 27/2/1
f 31/5/1 30/5/1 29/5/1
f 32/5/1 30/5/1 31/5/1
f 35/2/1 34/2/1 33/2/1
f 36/2/1 34/2/1 35/2/1
f 39/5/1 38/5/1 37/5/1
f 40/5/1 38/5/1 39/5/1
f 43/2/1 42/2/1 41/2/1
f 44/2/1 42/2/1 43/2/1
f 47/2/1 46/2/1 45/2/1
f 48/2/1 46/2/1 47/2/1
f 51/5/1 50/5/1 49/5/1
f 52/5/1 50/5/1 51/5/1
f 55/2/1 54/2/1 53/2/1
f 56/2/1 54/2/1 55/2/1
f 59/2/1 58/2/1 57/2/1
f 60/2/1 58/2/1 59/2/1
f 63/5/1 62/5/1 61/5/1
f 64/5/1 62/5/1 63/5/1
f 67/2/1 66/2/1 65/2/1
f 68/2/1 66/2/1 67/2/1
f 71/2/1 70/2/1 69/2/1
f 72/2/1 70/2/1 71/2/1
f 75/5/1 74/5/1 73/5/1
f 76/5/1 74/5/1 75/5/1
f 79/2/1 78/2/1 77/2/1
f 80/2/1 78/2/1 79/2/1
f 83/5/1 82/5/1 81/5/1
f 84/5/1 82/5/1 83/5/1
f 85/5/2 86/5/2 87/5/2
f 87/5/2 86/5/2 88/5/2
f 89/5/2 90/5/2 91/5/2
f 91/5/2 90/5/2 92/5/2
f 93/2/2 94/2/2 95/2/2
f 95/2/2 94/2/2 96/2/2
f 97/2/2 98/2/2 99/2/2
f 99/2/2 98/2/2 100/2/2
f 101/2/2 102/2/2 103/2/2
f 103/2/2 102/2/2 104/2/2
f 105/5/2 106/5/2 107/5/2
f 107/5/2 106/5/2 108/5/2
f 109/2/2 110/2/2 111/2/2
f 111/2/2 110/2/2 112/2/2
f 113/5/2 114/5/2 115/5/2
f 115/5/2 114/5/2 116/5/2
f 117/2/2 118/2/2 119/2/2
f 119/2/2 118/2/2 120/2/2
f 121/5/2 122/5/2 123/5/2
f 123/5/2 122/5/2 124/5/2
f 125/2/2 126/2/2 127/2/2
f 127/2/2 126/2/2 128/2/2
f 129/2/2 130/2/2 131/2/2
f 131/2/2 130/2/2 132/2/2
f 133/5/2 134/5/2 135/5/2
f 135/5/2 134/5/2 136/5/2
f 137/2/2 138/2/2 139/2/2
f 139/2/2 138/2/2 140/2/2
f 141/2/2 142/2/2 143/2/2
f 143/2/2 142/2/2 144/2/2
f 145/2/2 146/2/2 147/2/2
f 147/2/2 146/2/2 148/2/2
f 149/5/2 150/5/2 151/5/2
f 151/5/2 150/5/2 152/5/2
f 153/2/2 154/2/2 155/2/2
f 155/2/2 154/2/2 156/2/2
f 157/2/2 158/2/2 159/2/2
f 159/2/2 158/2/2 160/2/2
f 159/4/2 160/4/2 161/4/2
f 160/2/2 158/2/2 162/2/2
f 161/4/2 160/4/2 162/4/2
f 162/2/2 158/2/2 163/2/2
f 164/5/2 165/5/2 166/5/2
f 166/5/2 165/5/2 167/5/2
f 168/5/2 169/5/2 170/5/2
f 170/5/2 169/5/2 171/5/2
f 174/5/3 173/5/3 172/5/3
f 175/5/3 173/5/3 174/5/3
f 176/5/3 173/5/3 175/5/3
f 177/5/3 173/5/3 176/5/3
f 179/5/3 173/5/3 177/5/3
f 180/5/3 179/5/3 178/5/3
f 181/5/3 173/5/3 179/5/3
f 181/5/3 179/5/3 180/5/3
f 183/5/3 173/5/3 181/5/3
f 184/5/3 183/5/3 182/5/3
f 185/5/3 173/5/3 183/5/3
f 185/5/3 183/5/3 184/5/3
f 187/5/3 173/5/3 185/5/3
f 188/5/3 187/5/3 186/5/3
f 189/5/3 173/5/3 187/5/3
f 189/5/3 187/5/3 188/5/3
f 191/5/3 173/5/3 189/5/3
f 192/5/3 191/5/3 190/5/3
f 193/5/3 173/5/3 191/5/3
f 193/5/3 191/5/3 192/5/3
f 195/5/3 173/5/3 193/5/3
f 196/5/3 195/5/3 194/5/3
f 197/5/3 173/5/3 195/5/3
f 197/5/3 195/5/3 196/5/3
f 199/5/3 173/5/3 197/5/3
f 201/5/3 199/5/3 198/5/3
f 202/5/3 201/5/3 200/5/3
f 203/5/3 173/5/3 199/5/3
f 203/5/3 201/5/3 202/5/3
f 203/5/3 199/5/3 201/5/3
f 209/2/3 205/2/3 204/2/3
f 209/4/3 206/4/3 205/4/3
f 210/4/3 206/4/3 209/4/3
f 212/2/3 209/2/3 204/2/3
f 213/2/3 209/2/3 212/2/3
f 214/2/3 212/2/3 204/2/3
f 215/2/3 212/2/3 214/2/3
f 216/4/3 211/4/3 210/4/3
f 216/1/3 210/1/3 209/1/3
f 217/4/3 211/4/3 216/4/3
f 219/2/3 209/2/3 213/2/3
f 220/1/3 216/1/3 209/1/3
f 220/2/3 209/2/3 219/2/3
f 221/1/3 216/1/3 220/1/3
f 222/2/3 214/2/3 204/2/3
f 223/2/3 219/2/3 218/2/3
f 223/2/3 220/2/3 219/2/3
f 224/2/3 222/2/3 204/2/3
f 224/2/3 223/2/3 222/2/3
f 225/2/3 223/2/3 224/2/3
f 226/2/3 224/2/3 204/2/3
f 227/2/3 223/2/3 225/2/3
f 228/2/3 220/2/3 223/2/3
f 228/4/3 221/4/3 220/4/3
f 228/2/3 223/2/3 227/2/3
f 229/4/3 221/4/3 228/4/3
f 231/1/3 229/1/3 228/1/3
f 231/2/3 227/2/3 226/2/3
f 231/2/3 228/2/3 227/2/3
f 232/4/3 230/4/3 229/4/3
f 232/1/3 229/1/3 231/1/3
f 233/4/3 230/4/3 232/4/3
f 234/2/3 231/2/3 226/2/3
f 235/2/3 231/2/3 234/2/3
f 236/2/3 234/2/3 226/2/3
f 237/2/3 231/2/3 235/2/3
f 238/4/3 232/4/3 231/4/3
f 238/2/3 231/2/3 237/2/3
f 239/4/3 232/4/3 238/4/3
f 241/2/3 237/2/3 236/2/3
f 241/2/3 238/2/3 237/2/3
f 241/1/3 239/1/3 238/1/3
f 242/4/3 240/4/3 239/4/3
f 242/1/3 239/1/3 241/1/3
f 243/4/3 240/4/3 242/4/3
f 244/2/3 241/2/3 236/2/3
f 245/2/3 241/2/3 244/2/3
f 246/2/3 244/2/3 236/2/3
f 247/2/3 241/2/3 245/2/3
f 248/4/3 242/4/3 241/4/3
f 248/2/3 247/2/3 246/2/3
f 248/2/3 241/2/3 247/2/3
f 249/4/3 242/4/3 248/4/3
f 251/2/3 226/2/3 204/2/3
f 251/2/3 236/2/3 226/2/3
f 251/2/3 246/2/3 236/2/3
f 251/2/3 248/2/3 246/2/3
f 252/2/3 248/2/3 251/2/3
f 253/2/3 251/2/3 204/2/3
f 254/2/3 251/2/3 253/2/3
f 256/2/3 248/2/3 252/2/3
f 257/1/3 249/1/3 248/1/3
f 257/2/3 248/2/3 256/2/3
f 258/4/3 250/4/3 249/4/3
f 258/1/3 249/1/3 257/1/3
f 259/4/3 250/4/3 258/4/3
f 260/2/3 253/2/3 204/2/3
f 261/2/3 257/2/3 256/2/3
f 261/2/3 256/2/3 255/2/3
f 262/4/3 258/4/3 257/4/3
f 262/2/3 261/2/3 260/2/3
f 262/2/3 257/2/3 261/2/3
f 263/4/3 258/4/3 262/4/3
f 265/2/3 262/2/3 260/2/3
f 266/2/3 262/2/3 265/2/3
f 267/2/3 265/2/3 260/2/3
f 268/2/3 265/2/3 267/2/3
f 270/2/3 262/2/3 266/2/3
f 271/1/3 263/1/3 262/1/3
f 271/2/3 262/2/3 270/2/3
f 272/4/3 264/4/3 263/4/3
f 272/1/3 263/1/3 271/1/3
f 273/4/3 264/4/3 272/4/3
f 274/2/3 267/2/3 260/2/3
f 275/2/3 271/2/3 270/2/3
f 275/2/3 270/2/3 269/2/3
f 276/2/3 260/2/3 204/2/3
f 276/2/3 275/2/3 274/2/3
f 276/2/3 274/2/3 260/2/3
f 277/2/3 275/2/3 276/2/3
f 278/2/3 271/2/3 275/2/3
f 278/2/3 275/2/3 277/2/3
f 278/4/3 272/4/3 271/4/3
f 279/4/3 272/4/3 278/4/3
f 281/2/3 276/2/3 204/2/3
f 282/2/3 278/2/3 277/2/3
f 283/2/3 278/2/3 282/2/3
f 283/2/3 282/2/3 281/2/3
f 284/2/3 278/2/3 283/2/3
f 285/1/3 279/1/3 278/1/3
f 285/2/3 278/2/3 284/2/3
f 286/4/3 280/4/3 279/4/3
f 286/1/3 279/1/3 285/1/3
f 287/4/3 280/4/3 286/4/3
f 288/2/3 283/2/3 281/2/3
f 289/2/3 285/2/3 284/2/3
f 290/2/3 285/2/3 289/2/3
f 291/4/3 286/4/3 285/4/3
f 291/2/3 285/2/3 290/2/3
f 292/2/3 288/2/3 281/2/3
f 292/2/3 281/2/3 204/2/3
f 292/2/3 290/2/3 289/2/3
f 292/2/3 289/2/3 288/2/3
f 293/4/3 291/4/3 290/4/3
f 293/2/3 290/2/3 292/2/3
f 294/4/3 286/4/3 291/4/3
f 294/4/3 291/4/3 293/4/3
f 295/4/3 286/4/3 294/4/3
f 296/5/3 208/5/3 207/5/3
f 297/5/3 208/5/3 296/5/3
f 301/2/3 299/2/3 298/2/3
f 302/2/3 299/2/3 301/2/3
f 302/2/3 301/2/3 300/2/3
f 303/2/3 299/2/3 302/2/3
f 304/2/3 302/2/3 300/2/3
f 305/2/3 302/2/3 304/2/3
f 308/2/3 307/2/3 306/2/3
f 309/2/3 307/2/3 308/2/3
f 312/2/3 311/2/3 310/2/3
f 313/2/3 311/2/3 312/2/3
f 316/2/3 315/2/3 314/2/3
f 317/2/3 315/2/3 316/2/3
f 321/2/3 319/2/3 318/2/3
f 322/2/3 319/2/3 321/2/3
f 322/2/3 321/2/3 320/2/3
f 323/2/3 319/2/3 322/2/3
f 324/2/3 322/2/3 320/2/3
f 325/2/3 322/2/3 324/2/3
f 329/2/3 327/2/3 326/2/3
f 330/2/3 327/2/3 329/2/3
f 330/2/3 329/2/3 328/2/3
f 331/2/3 327/2/3 330/2/3
f 332/2/3 330/2/3 328/2/3
f 333/2/3 330/2/3 332/2/3
f 336/2/3 335/2/3 334/2/3
f 337/2/3 335/2/3 336/2/3
f 340/2/3 339/2/3 338/2/3
f 341/2/3 339/2/3 340/2/3
f 342/2/4 343/2/4 346/2/4
f 346/2/4 343/2/4 347/2/4
f 344/5/4 345/5/4 348/5/4
f 348/5/4 345/5/4 349/5/4
f 350/5/4 351/5/4 352/5/4
f 352/5/4 351/5/4 353/5/4
f 356/2/5 355/2/5 354/2/5
f 357/2/5 355/2/5 356/2/5
f 360/2/5 359/2/5 358/2/5
f 361/2/5 359/2/5 360/2/5
f 366/2/5 363/2/5 362/2/5
f 367/2/5 363/2/5 366/2/5
f 368/2/5 365/2/5 364/2/5
f 369/2/5 365/2/5 368/2/5
f 372/2/5 371/2/5 370/2/5
f 373/2/5 371/2/5 372/2/5
f 376/2/5 375/2/5 374/2/5
f 377/2/5 375/2/5 376/2/5
f 382/2/5 379/2/5 378/2/5
f 383/2/5 379/2/5 382/2/5
f 384/2/5 381/2/5 380/2/5
f 385/2/5 381/2/5 384/2/5
f 390/2/5 387/2/5 386/2/5
f 391/2/5 387/2/5 390/2/5
f 392/2/5 389/2/5 388/2/5
f 393/2/5 389/2/5 392/2/5
f 398/2/5 395/2/5 394/2/5
f 399/2/5 395/2/5 398/2/5
f 400/2/5 397/2/5 396/2/5
f 401/2/5 397/2/5 400/2/5
f 406/5/5 403/5/5 402/5/5
f 407/5/5 405/5/5 404/5/5
f 408/5/5 405/5/5 407/5/5
f 409/5/5 406/5/5 402/5/5
f 410/5/5 405/5/5 408/5/5
f 411/5/5 409/5/5 402/5/5
f 411/5/5 410/5/5 409/5/5
f 412/5/5 405/5/5 410/5/5
f 412/5/5 410/5/5 411/5/5
f 427/5/5 414/5/5 413/5/5
f 428/5/5 414/5/5 427/5/5
f 429/5/5 416/5/5 415/5/5
f 430/5/5 416/5/5 429/5/5
f 431/5/5 416/5/5 430/5/5
f 432/5/5 418/5/5 417/5/5
f 433/5/5 418/5/5 432/5/5
f 434/5/5 420/5/5 419/5/5
f 435/5/5 420/5/5 434/5/5
f 436/5/5 422/5/5 421/5/5
f 437/5/5 422/5/5 436/5/5
f 438/5/5 424/5/5 423/5/5
f 439/5/5 424/5/5 438/5/5
f 440/5/5 426/5/5 425/5/5
f 441/5/5 426/5/5 440/5/5
f 454/5/5 443/5/5 442/5/5
f 455/5/5 443/5/5 454/5/5
f 456/5/5 445/5/5 444/5/5
f 457/5/5 445/5/5 456/5/5
f 458/5/5 447/5/5 446/5/5
f 459/5/5 447/5/5 458/5/5
f 460/5/5 449/5/5 448/5/5
f 461/5/5 449/5/5 460/5/5
f 462/5/5 451/5/5 450/5/5
f 463/5/5 451/5/5 462/5/5
f 464/5/5 453/5/5 452/5/5
f 465/5/5 453/5/5 464/5/5
f 466/2/6 467/2/6 470/2/6
f 470/2/6 467/2/6 471/2/6
f 468/2/6 469/2/6 472/2/6
f 472/2/6 469/2/6 473/2/6
f 474/2/6 475/2/6 478/2/6
f 478/2/6 475/2/6 479/2/6
f 476/2/6 477/2/6 480/2/6
f 480/2/6 477/2/6 481/2/6
f 482/2/6 483/2/6 484/2/6
f 484/2/6 483/2/6 485/2/6
f 486/2/6 487/2/6 488/2/6
f 488/2/6 487/2/6 489/2/6
f 490/2/6 491/2/6 496/2/6
f 496/2/6 491/2/6 497/2/6
f 492/2/6 493/2/6 498/2/6
f 498/2/6 493/2/6 499/2/6
f 494/2/6 495/2/6 500/2/6
f 500/2/6 495/2/6 501/2/6
f 502/2/6 503/2/6 504/2/6
f 504/2/6 503/2/6 505/2/6
f 506/2/6 507/2/6 508/2/6
f 508/2/6 507/2/6 509/2/6
f 510/5/6 511/5/6 512/5/6
f 512/5/6 511/5/6 513/5/6
f 510/5/6 512/5/6 514/5/6
f 513/5/6 511/5/6 515/5/6
f 510/5/6 514/5/6 516/5/6
f 514/5/6 515/5/6 516/5/6
f 515/5/6 511/5/6 517/5/6
f 516/5/6 515/5/6 517/5/6
f 518/5/6 519/5/6 520/5/6
f 520/5/6 519/5/6 521/5/6
