# MagicaVoxel @ Ephtracy

# material
mtllib wall1.mtl
usemtl palette

# normals
vn -1 0 0
vn 1 0 0
vn 0 0 1
vn 0 0 -1
vn 0 -1 0
vn 0 1 0

# texcoords
vt 0.310547 0.5
vt 0.341797 0.5
vt 0.587891 0.5
vt 0.623047 0.5
vt 0.626953 0.5

# verts
v -16 11 8
v -16 11 -8
v -16 14 8
v -16 14 -8
v -15 0 7
v -15 0 -7
v -15 10 7
v -15 10 6
v -15 11 7
v -15 11 6
v -15 11 -7
v -15 14 7
v -15 14 -7
v -15 15 7
v -15 15 -7
v -12 3 7
v -12 3 6
v -12 4 7
v -12 4 6
v -10 12 8
v -10 12 7
v -10 13 8
v -10 13 7
v -7 5 7
v -7 5 6
v -7 7 7
v -7 7 6
v -6 12 8
v -6 12 7
v -6 13 8
v -6 13 7
v -2 9 7
v -2 9 6
v -2 10 7
v -2 10 6
v 2 4 7
v 2 4 6
v 2 5 7
v 2 5 6
v 2 12 8
v 2 12 7
v 2 13 8
v 2 13 7
v 3 2 7
v 3 2 6
v 3 4 7
v 3 4 6
v 9 9 7
v 9 9 6
v 9 10 7
v 9 10 6
v 9 12 8
v 9 12 7
v 9 13 8
v 9 13 7
v 11 7 7
v 11 7 6
v 11 9 7
v 11 9 6
v 13 2 7
v 13 2 6
v 13 3 7
v 13 3 6
v 13 12 8
v 13 12 7
v 13 13 8
v 13 13 7
v 14 11 8
v 14 11 7
v 14 12 8
v 14 12 7
v -13 3 7
v -13 3 6
v -13 4 7
v -13 4 6
v -13 11 8
v -13 11 7
v -13 12 8
v -13 12 7
v -12 12 8
v -12 12 7
v -12 13 8
v -12 13 7
v -9 5 7
v -9 5 6
v -9 7 7
v -9 7 6
v -7 12 8
v -7 12 7
v -7 13 8
v -7 13 7
v -3 9 7
v -3 9 6
v -3 10 7
v -3 10 6
v -1 12 8
v -1 12 7
v -1 13 8
v -1 13 7
v 0 3 7
v 0 3 6
v 0 5 7
v 0 5 6
v 1 2 7
v 1 2 6
v 1 3 7
v 1 3 6
v 5 12 8
v 5 12 7
v 5 13 8
v 5 13 7
v 7 8 7
v 7 8 6
v 7 10 7
v 7 10 6
v 8 7 7
v 8 7 6
v 8 8 7
v 8 8 6
v 12 2 7
v 12 2 6
v 12 3 7
v 12 3 6
v 12 12 8
v 12 12 7
v 12 13 8
v 12 13 7
v 15 0 7
v 15 0 -7
v 15 10 7
v 15 10 6
v 15 11 7
v 15 11 6
v 15 11 -7
v 15 14 7
v 15 14 -7
v 15 15 7
v 15 15 -7
v 16 11 8
v 16 11 -8
v 16 14 8
v 16 14 -8
v -16 11 8
v -16 14 8
v -13 11 8
v -13 12 8
v -12 12 8
v -12 13 8
v -10 12 8
v -10 13 8
v -7 12 8
v -7 13 8
v -6 12 8
v -6 13 8
v -1 12 8
v -1 13 8
v 2 12 8
v 2 13 8
v 5 12 8
v 5 13 8
v 9 12 8
v 9 13 8
v 12 12 8
v 12 13 8
v 13 12 8
v 13 13 8
v 14 11 8
v 14 12 8
v 16 11 8
v 16 14 8
v -15 0 7
v -15 10 7
v -15 11 7
v -15 14 7
v -15 15 7
v -13 3 7
v -13 4 7
v -13 10 7
v -13 11 7
v -13 12 7
v -12 3 7
v -12 4 7
v -12 11 7
v -12 12 7
v -12 13 7
v -10 11 7
v -10 12 7
v -10 13 7
v -9 5 7
v -9 7 7
v -7 5 7
v -7 7 7
v -7 11 7
v -7 12 7
v -7 13 7
v -6 11 7
v -6 12 7
v -6 13 7
v -3 9 7
v -3 10 7
v -2 9 7
v -2 10 7
v -1 11 7
v -1 12 7
v -1 13 7
v 0 3 7
v 0 5 7
v 1 2 7
v 1 3 7
v 2 4 7
v 2 5 7
v 2 11 7
v 2 12 7
v 2 13 7
v 3 2 7
v 3 4 7
v 5 11 7
v 5 12 7
v 5 13 7
v 7 8 7
v 7 10 7
v 8 7 7
v 8 8 7
v 9 9 7
v 9 10 7
v 9 11 7
v 9 12 7
v 9 13 7
v 11 7 7
v 11 9 7
v 12 2 7
v 12 3 7
v 12 11 7
v 12 12 7
v 12 13 7
v 13 2 7
v 13 3 7
v 13 11 7
v 13 12 7
v 13 13 7
v 14 10 7
v 14 11 7
v 14 12 7
v 15 0 7
v 15 10 7
v 15 11 7
v 15 14 7
v 15 15 7
v -13 3 6
v -13 4 6
v -12 3 6
v -12 4 6
v -9 5 6
v -9 7 6
v -7 5 6
v -7 7 6
v -3 9 6
v -3 10 6
v -2 9 6
v -2 10 6
v 0 3 6
v 0 5 6
v 1 2 6
v 1 3 6
v 2 4 6
v 2 5 6
v 3 2 6
v 3 4 6
v 7 8 6
v 7 10 6
v 8 7 6
v 8 8 6
v 9 9 6
v 9 10 6
v 11 7 6
v 11 9 6
v 12 2 6
v 12 3 6
v 13 2 6
v 13 3 6
v -15 0 -7
v -15 11 -7
v -15 14 -7
v -15 15 -7
v 15 0 -7
v 15 11 -7
v 15 14 -7
v 15 15 -7
v -16 11 -8
v -16 14 -8
v 16 11 -8
v 16 14 -8
v -15 0 7
v 15 0 7
v -15 0 -7
v 15 0 -7
v 12 3 7
v 13 3 7
v 12 3 6
v 13 3 6
v -13 4 7
v -12 4 7
v 2 4 7
v 3 4 7
v -13 4 6
v -12 4 6
v 2 4 6
v 3 4 6
v 0 5 7
v 2 5 7
v 0 5 6
v 2 5 6
v -9 7 7
v -7 7 7
v -9 7 6
v -7 7 6
v 9 9 7
v 11 9 7
v 9 9 6
v 11 9 6
v -3 10 7
v -2 10 7
v 7 10 7
v 9 10 7
v -3 10 6
v -2 10 6
v 7 10 6
v 9 10 6
v -16 11 8
v -13 11 8
v 14 11 8
v 16 11 8
v -15 11 7
v -13 11 7
v 14 11 7
v 15 11 7
v -15 11 6
v 15 11 6
v -15 11 -7
v 15 11 -7
v -16 11 -8
v 16 11 -8
v -13 12 8
v -12 12 8
v -10 12 8
v -7 12 8
v -6 12 8
v -1 12 8
v 2 12 8
v 5 12 8
v 9 12 8
v 12 12 8
v 13 12 8
v 14 12 8
v -13 12 7
v -12 12 7
v -10 12 7
v -7 12 7
v -6 12 7
v -1 12 7
v 2 12 7
v 5 12 7
v 9 12 7
v 12 12 7
v 13 12 7
v 14 12 7
v -12 13 8
v -10 13 8
v -7 13 8
v -6 13 8
v -1 13 8
v 2 13 8
v 5 13 8
v 9 13 8
v 12 13 8
v 13 13 8
v -12 13 7
v -10 13 7
v -7 13 7
v -6 13 7
v -1 13 7
v 2 13 7
v 5 13 7
v 9 13 7
v 12 13 7
v 13 13 7
v 1 2 7
v 3 2 7
v 12 2 7
v 13 2 7
v 1 2 6
v 3 2 6
v 12 2 6
v 13 2 6
v -13 3 7
v -12 3 7
v 0 3 7
v 1 3 7
v -13 3 6
v -12 3 6
v 0 3 6
v 1 3 6
v -9 5 7
v -7 5 7
v -9 5 6
v -7 5 6
v 8 7 7
v 11 7 7
v 8 7 6
v 11 7 6
v 7 8 7
v 8 8 7
v 7 8 6
v 8 8 6
v -3 9 7
v -2 9 7
v -3 9 6
v -2 9 6
v -16 14 8
v 16 14 8
v -15 14 7
v 15 14 7
v -15 14 -7
v 15 14 -7
v -16 14 -8
v 16 14 -8
v -15 15 7
v 15 15 7
v -15 15 -7
v 15 15 -7

# faces
f 3/5/1 2/5/1 1/5/1
f 4/5/1 2/5/1 3/5/1
f 7/2/1 6/2/1 5/2/1
f 8/2/1 6/2/1 7/2/1
f 9/4/1 8/4/1 7/4/1
f 10/2/1 6/2/1 8/2/1
f 10/4/1 8/4/1 9/4/1
f 11/2/1 6/2/1 10/2/1
f 14/5/1 13/5/1 12/5/1
f 15/5/1 13/5/1 14/5/1
f 18/2/1 17/2/1 16/2/1
f 19/2/1 17/2/1 18/2/1
f 22/5/1 21/5/1 20/5/1
f 23/5/1 21/5/1 22/5/1
f 26/2/1 25/2/1 24/2/1
f 27/2/1 25/2/1 26/2/1
f 30/5/1 29/5/1 28/5/1
f 31/5/1 29/5/1 30/5/1
f 34/2/1 33/2/1 32/2/1
f 35/2/1 33/2/1 34/2/1
f 38/2/1 37/2/1 36/2/1
f 39/2/1 37/2/1 38/2/1
f 42/5/1 41/5/1 40/5/1
f 43/5/1 41/5/1 42/5/1
f 46/2/1 45/2/1 44/2/1
f 47/2/1 45/2/1 46/2/1
f 50/2/1 49/2/1 48/2/1
f 51/2/1 49/2/1 50/2/1
f 54/5/1 53/5/1 52/5/1
f 55/5/1 53/5/1 54/5/1
f 58/2/1 57/2/1 56/2/1
f 59/2/1 57/2/1 58/2/1
f 62/2/1 61/2/1 60/2/1
f 63/2/1 61/2/1 62/2/1
f 66/5/1 65/5/1 64/5/1
f 67/5/1 65/5/1 66/5/1
f 70/5/1 69/5/1 68/5/1
f 71/5/1 69/5/1 70/5/1
f 72/2/2 73/2/2 74/2/2
f 74/2/2 73/2/2 75/2/2
f 76/5/2 77/5/2 78/5/2
f 78/5/2 77/5/2 79/5/2
f 80/5/2 81/5/2 82/5/2
f 82/5/2 81/5/2 83/5/2
f 84/2/2 85/2/2 86/2/2
f 86/2/2 85/2/2 87/2/2
f 88/5/2 89/5/2 90/5/2
f 90/5/2 89/5/2 91/5/2
f 92/2/2 93/2/2 94/2/2
f 94/2/2 93/2/2 95/2/2
f 96/5/2 97/5/2 98/5/2
f 98/5/2 97/5/2 99/5/2
f 100/2/2 101/2/2 102/2/2
f 102/2/2 101/2/2 103/2/2
f 104/2/2 105/2/2 106/2/2
f 106/2/2 105/2/2 107/2/2
f 108/5/2 109/5/2 110/5/2
f 110/5/2 109/5/2 111/5/2
f 112/2/2 113/2/2 114/2/2
f 114/2/2 113/2/2 115/2/2
f 116/2/2 117/2/2 118/2/2
f 118/2/2 117/2/2 119/2/2
f 120/2/2 121/2/2 122/2/2
f 122/2/2 121/2/2 123/2/2
f 124/5/2 125/5/2 126/5/2
f 126/5/2 125/5/2 127/5/2
f 128/2/2 129/2/2 130/2/2
f 130/2/2 129/2/2 131/2/2
f 130/4/2 131/4/2 132/4/2
f 131/2/2 129/2/2 133/2/2
f 132/4/2 131/4/2 133/4/2
f 133/2/2 129/2/2 134/2/2
f 135/5/2 136/5/2 137/5/2
f 137/5/2 136/5/2 138/5/2
f 139/5/2 140/5/2 141/5/2
f 141/5/2 140/5/2 142/5/2
f 145/5/3 144/5/3 143/5/3
f 146/5/3 144/5/3 145/5/3
f 147/5/3 144/5/3 146/5/3
f 148/5/3 144/5/3 147/5/3
f 150/5/3 144/5/3 148/5/3
f 151/5/3 150/5/3 149/5/3
f 152/5/3 144/5/3 150/5/3
f 152/5/3 150/5/3 151/5/3
f 154/5/3 144/5/3 152/5/3
f 155/5/3 154/5/3 153/5/3
f 156/5/3 144/5/3 154/5/3
f 156/5/3 154/5/3 155/5/3
f 158/5/3 144/5/3 156/5/3
f 159/5/3 158/5/3 157/5/3
f 160/5/3 144/5/3 158/5/3
f 160/5/3 158/5/3 159/5/3
f 162/5/3 144/5/3 160/5/3
f 163/5/3 162/5/3 161/5/3
f 164/5/3 144/5/3 162/5/3
f 164/5/3 162/5/3 163/5/3
f 166/5/3 144/5/3 164/5/3
f 168/5/3 166/5/3 165/5/3
f 169/5/3 168/5/3 167/5/3
f 170/5/3 144/5/3 166/5/3
f 170/5/3 168/5/3 169/5/3
f 170/5/3 166/5/3 168/5/3
f 176/2/3 172/2/3 171/2/3
f 177/2/3 172/2/3 176/2/3
f 178/4/3 173/4/3 172/4/3
f 178/2/3 172/2/3 177/2/3
f 179/4/3 173/4/3 178/4/3
f 181/2/3 176/2/3 171/2/3
f 182/2/3 179/2/3 178/2/3
f 182/2/3 178/2/3 177/2/3
f 183/4/3 180/4/3 179/4/3
f 183/2/3 179/2/3 182/2/3
f 184/4/3 180/4/3 183/4/3
f 186/2/3 182/2/3 181/2/3
f 186/2/3 183/2/3 182/2/3
f 186/1/3 184/1/3 183/1/3
f 187/4/3 185/4/3 184/4/3
f 187/1/3 184/1/3 186/1/3
f 188/4/3 185/4/3 187/4/3
f 189/2/3 186/2/3 181/2/3
f 190/2/3 186/2/3 189/2/3
f 191/2/3 189/2/3 181/2/3
f 192/2/3 186/2/3 190/2/3
f 193/4/3 187/4/3 186/4/3
f 193/2/3 186/2/3 192/2/3
f 194/4/3 187/4/3 193/4/3
f 196/2/3 192/2/3 191/2/3
f 196/2/3 193/2/3 192/2/3
f 196/1/3 194/1/3 193/1/3
f 197/4/3 195/4/3 194/4/3
f 197/1/3 194/1/3 196/1/3
f 198/4/3 195/4/3 197/4/3
f 199/2/3 196/2/3 191/2/3
f 200/2/3 196/2/3 199/2/3
f 201/2/3 199/2/3 191/2/3
f 202/2/3 196/2/3 200/2/3
f 203/4/3 197/4/3 196/4/3
f 203/2/3 202/2/3 201/2/3
f 203/2/3 196/2/3 202/2/3
f 204/4/3 197/4/3 203/4/3
f 206/2/3 181/2/3 171/2/3
f 206/2/3 191/2/3 181/2/3
f 206/2/3 201/2/3 191/2/3
f 206/2/3 203/2/3 201/2/3
f 207/2/3 203/2/3 206/2/3
f 208/2/3 206/2/3 171/2/3
f 209/2/3 206/2/3 208/2/3
f 211/2/3 203/2/3 207/2/3
f 212/1/3 204/1/3 203/1/3
f 212/2/3 203/2/3 211/2/3
f 213/4/3 205/4/3 204/4/3
f 213/1/3 204/1/3 212/1/3
f 214/4/3 205/4/3 213/4/3
f 215/2/3 208/2/3 171/2/3
f 216/2/3 212/2/3 211/2/3
f 216/2/3 211/2/3 210/2/3
f 217/4/3 213/4/3 212/4/3
f 217/2/3 216/2/3 215/2/3
f 217/2/3 212/2/3 216/2/3
f 218/4/3 213/4/3 217/4/3
f 220/2/3 217/2/3 215/2/3
f 221/2/3 217/2/3 220/2/3
f 222/2/3 220/2/3 215/2/3
f 223/2/3 220/2/3 222/2/3
f 225/2/3 217/2/3 221/2/3
f 226/1/3 218/1/3 217/1/3
f 226/2/3 217/2/3 225/2/3
f 227/4/3 219/4/3 218/4/3
f 227/1/3 218/1/3 226/1/3
f 228/4/3 219/4/3 227/4/3
f 229/2/3 222/2/3 215/2/3
f 230/2/3 226/2/3 225/2/3
f 230/2/3 225/2/3 224/2/3
f 231/2/3 215/2/3 171/2/3
f 231/2/3 230/2/3 229/2/3
f 231/2/3 229/2/3 215/2/3
f 232/2/3 230/2/3 231/2/3
f 233/2/3 226/2/3 230/2/3
f 233/2/3 230/2/3 232/2/3
f 233/4/3 227/4/3 226/4/3
f 234/4/3 227/4/3 233/4/3
f 236/2/3 231/2/3 171/2/3
f 237/2/3 233/2/3 232/2/3
f 238/1/3 234/1/3 233/1/3
f 238/2/3 233/2/3 237/2/3
f 239/4/3 235/4/3 234/4/3
f 239/1/3 234/1/3 238/1/3
f 240/4/3 235/4/3 239/4/3
f 241/2/3 238/2/3 237/2/3
f 241/2/3 237/2/3 236/2/3
f 242/4/3 239/4/3 238/4/3
f 242/2/3 238/2/3 241/2/3
f 243/4/3 239/4/3 242/4/3
f 244/2/3 241/2/3 236/2/3
f 244/2/3 236/2/3 171/2/3
f 245/4/3 242/4/3 241/4/3
f 245/2/3 241/2/3 244/2/3
f 246/4/3 242/4/3 245/4/3
f 247/5/3 175/5/3 174/5/3
f 248/5/3 175/5/3 247/5/3
f 251/2/3 250/2/3 249/2/3
f 252/2/3 250/2/3 251/2/3
f 255/2/3 254/2/3 253/2/3
f 256/2/3 254/2/3 255/2/3
f 259/2/3 258/2/3 257/2/3
f 260/2/3 258/2/3 259/2/3
f 264/2/3 262/2/3 261/2/3
f 265/2/3 262/2/3 264/2/3
f 265/2/3 264/2/3 263/2/3
f 266/2/3 262/2/3 265/2/3
f 267/2/3 265/2/3 263/2/3
f 268/2/3 265/2/3 267/2/3
f 272/2/3 270/2/3 269/2/3
f 273/2/3 270/2/3 272/2/3
f 273/2/3 272/2/3 271/2/3
f 274/2/3 270/2/3 273/2/3
f 275/2/3 273/2/3 271/2/3
f 276/2/3 273/2/3 275/2/3
f 279/2/3 278/2/3 277/2/3
f 280/2/3 278/2/3 279/2/3
f 281/2/4 282/2/4 285/2/4
f 285/2/4 282/2/4 286/2/4
f 283/5/4 284/5/4 287/5/4
f 287/5/4 284/5/4 288/5/4
f 289/5/4 290/5/4 291/5/4
f 291/5/4 290/5/4 292/5/4
f 295/2/5 294/2/5 293/2/5
f 296/2/5 294/2/5 295/2/5
f 299/2/5 298/2/5 297/2/5
f 300/2/5 298/2/5 299/2/5
f 305/2/5 302/2/5 301/2/5
f 306/2/5 302/2/5 305/2/5
f 307/2/5 304/2/5 303/2/5
f 308/2/5 304/2/5 307/2/5
f 311/2/5 310/2/5 309/2/5
f 312/2/5 310/2/5 311/2/5
f 315/2/5 314/2/5 313/2/5
f 316/2/5 314/2/5 315/2/5
f 319/2/5 318/2/5 317/2/5
f 320/2/5 318/2/5 319/2/5
f 325/2/5 322/2/5 321/2/5
f 326/2/5 322/2/5 325/2/5
f 327/2/5 324/2/5 323/2/5
f 328/2/5 324/2/5 327/2/5
f 333/5/5 330/5/5 329/5/5
f 334/5/5 330/5/5 333/5/5
f 335/5/5 332/5/5 331/5/5
f 336/5/5 332/5/5 335/5/5
f 337/5/5 333/5/5 329/5/5
f 338/5/5 332/5/5 336/5/5
f 339/5/5 337/5/5 329/5/5
f 340/5/5 332/5/5 338/5/5
f 341/5/5 339/5/5 329/5/5
f 341/5/5 340/5/5 339/5/5
f 342/5/5 332/5/5 340/5/5
f 342/5/5 340/5/5 341/5/5
f 355/5/5 344/5/5 343/5/5
f 356/5/5 344/5/5 355/5/5
f 357/5/5 346/5/5 345/5/5
f 358/5/5 346/5/5 357/5/5
f 359/5/5 348/5/5 347/5/5
f 360/5/5 348/5/5 359/5/5
f 361/5/5 350/5/5 349/5/5
f 362/5/5 350/5/5 361/5/5
f 363/5/5 352/5/5 351/5/5
f 364/5/5 352/5/5 363/5/5
f 365/5/5 354/5/5 353/5/5
f 366/5/5 354/5/5 365/5/5
f 377/5/5 368/5/5 367/5/5
f 378/5/5 368/5/5 377/5/5
f 379/5/5 370/5/5 369/5/5
f 380/5/5 370/5/5 379/5/5
f 381/5/5 372/5/5 371/5/5
f 382/5/5 372/5/5 381/5/5
f 383/5/5 374/5/5 373/5/5
f 384/5/5 374/5/5 383/5/5
f 385/5/5 376/5/5 375/5/5
f 386/5/5 376/5/5 385/5/5
f 387/2/6 388/2/6 391/2/6
f 391/2/6 388/2/6 392/2/6
f 389/2/6 390/2/6 393/2/6
f 393/2/6 390/2/6 394/2/6
f 395/2/6 396/2/6 399/2/6
f 399/2/6 396/2/6 400/2/6
f 397/2/6 398/2/6 401/2/6
f 401/2/6 398/2/6 402/2/6
f 403/2/6 404/2/6 405/2/6
f 405/2/6 404/2/6 406/2/6
f 407/2/6 408/2/6 409/2/6
f 409/2/6 408/2/6 410/2/6
f 411/2/6 412/2/6 413/2/6
f 413/2/6 412/2/6 414/2/6
f 415/2/6 416/2/6 417/2/6
f 417/2/6 416/2/6 418/2/6
f 419/5/6 420/5/6 421/5/6
f 421/5/6 420/5/6 422/5/6
f 419/5/6 421/5/6 423/5/6
f 422/5/6 420/5/6 424/5/6
f 419/5/6 423/5/6 425/5/6
f 423/5/6 424/5/6 425/5/6
f 424/5/6 420/5/6 426/5/6
f 425/5/6 424/5/6 426/5/6
f 427/5/6 428/5/6 429/5/6
f 429/5/6 428/5/6 430/5/6
